<svg width="56" height="54" viewBox="0 0 56 54" fill="none" xmlns="http://www.w3.org/2000/svg">
<path d="M36.3038 12.5537C37.4056 11.7273 38.2196 10.5751 38.6302 9.26044C39.0409 7.94573 39.0275 6.53514 38.592 5.22847C38.1564 3.92179 37.3208 2.78529 36.2034 1.97993C35.086 1.17458 33.7436 0.741211 32.3663 0.741211C30.9889 0.741211 29.6465 1.17458 28.5291 1.97993C27.4117 2.78529 26.5761 3.92179 26.1405 5.22847C25.705 6.53514 25.6916 7.94573 26.1023 9.26044C26.5129 10.5751 27.3269 11.7273 28.4288 12.5537C28.0001 12.6733 27.5793 12.8194 27.1687 12.9912C25.962 11.8662 24.3735 11.2407 22.7237 11.2407C21.074 11.2407 19.4855 11.8662 18.2787 12.9912C17.8682 12.8194 17.4474 12.6733 17.0188 12.5537C18.1206 11.7273 18.9346 10.5751 19.3452 9.26044C19.7559 7.94573 19.7425 6.53514 19.307 5.22847C18.8714 3.92179 18.0358 2.78529 16.9184 1.97993C15.801 1.17458 14.4586 0.741211 13.0813 0.741211C11.7039 0.741211 10.3615 1.17458 9.24409 1.97993C8.12672 2.78529 7.29107 3.92179 6.85552 5.22847C6.41996 6.53514 6.40657 7.94573 6.81726 9.26044C7.22794 10.5751 8.04187 11.7273 9.14375 12.5537C6.76201 13.2298 4.66588 14.6645 3.17356 16.6401C1.68124 18.6156 0.874219 21.0241 0.875001 23.5V24.375C0.875001 24.607 0.967188 24.8296 1.13128 24.9937C1.29538 25.1578 1.51794 25.25 1.75 25.25H14.6125C13.3264 26.3168 12.2911 27.654 11.5804 29.1663C10.8696 30.6786 10.5007 32.3289 10.5 34V34.875C10.5 35.107 10.5922 35.3296 10.7563 35.4937C10.9204 35.6578 11.1429 35.75 11.375 35.75H34.125C34.3571 35.75 34.5796 35.6578 34.7437 35.4937C34.9078 35.3296 35 35.107 35 34.875V34C34.9982 32.3282 34.628 30.6775 33.9157 29.1651C33.2034 27.6528 32.1665 26.316 30.8788 25.25H43.75C43.9821 25.25 44.2046 25.1578 44.3687 24.9937C44.5328 24.8296 44.625 24.607 44.625 24.375V23.5C44.6226 21.0173 43.808 18.6036 42.3055 16.6272C40.8031 14.6508 38.6953 13.2202 36.3038 12.5537ZM27.5537 7.30371C27.5555 6.35264 27.839 5.4234 28.3684 4.63333C28.8979 3.84326 29.6496 3.22779 30.5286 2.86462C31.4076 2.50146 32.3745 2.4069 33.3073 2.59287C34.24 2.77884 35.0967 3.237 35.7692 3.90952C36.4417 4.58203 36.8999 5.43873 37.0858 6.37145C37.2718 7.30417 37.1772 8.27108 36.8141 9.15009C36.4509 10.0291 35.8355 10.7808 35.0454 11.3103C34.2553 11.8397 33.3261 12.1232 32.375 12.125C31.0994 12.1226 29.8766 11.6149 28.9746 10.7129C28.0726 9.81084 27.5648 8.58811 27.5625 7.31246L27.5537 7.30371ZM22.75 13C23.7018 13 24.6323 13.2822 25.4237 13.811C26.2151 14.3398 26.8319 15.0914 27.1962 15.9708C27.5604 16.8502 27.6557 17.8178 27.47 18.7513C27.2843 19.6849 26.826 20.5424 26.153 21.2154C25.4799 21.8885 24.6224 22.3468 23.6889 22.5325C22.7553 22.7182 21.7877 22.6229 20.9083 22.2586C20.029 21.8944 19.2774 21.2776 18.7486 20.4861C18.2197 19.6947 17.9375 18.7643 17.9375 17.8125C17.9398 16.5368 18.4476 15.3141 19.3496 14.4121C20.2516 13.51 21.4744 13.0023 22.75 13ZM8.3125 7.31246C8.3125 6.36064 8.59475 5.43019 9.12355 4.63878C9.65236 3.84737 10.404 3.23054 11.2833 2.86629C12.1627 2.50204 13.1303 2.40674 14.0639 2.59243C14.9974 2.77812 15.8549 3.23647 16.528 3.90951C17.201 4.58255 17.6593 5.44006 17.845 6.37359C18.0307 7.30712 17.9354 8.27476 17.5712 9.15413C17.2069 10.0335 16.5901 10.7851 15.7987 11.3139C15.0073 11.8427 14.0768 12.125 13.125 12.125C11.8494 12.1226 10.6266 11.6149 9.7246 10.7129C8.82259 9.81084 8.31481 8.58811 8.3125 7.31246V7.31246ZM2.625 23.5C2.625 20.9473 3.63906 18.4991 5.4441 16.6941C7.24914 14.889 9.69729 13.875 12.25 13.875H14C15.0724 13.8762 16.1371 14.0566 17.15 14.4087C16.2974 15.7978 15.9961 17.4558 16.3055 19.056C16.6148 20.6562 17.5124 22.0825 18.8213 23.0537C18.3714 23.173 17.93 23.3221 17.5 23.5H2.625ZM33.25 34H12.25C12.25 31.4473 13.2641 28.9991 15.0691 27.1941C16.8741 25.389 19.3223 24.375 21.875 24.375H23.625C26.1777 24.375 28.6259 25.389 30.4309 27.1941C32.2359 28.9991 33.25 31.4473 33.25 34ZM28 23.5C27.5728 23.3225 27.1344 23.1734 26.6875 23.0537C27.9964 22.0825 28.8939 20.6562 29.2033 19.056C29.5126 17.4558 29.2113 15.7978 28.3587 14.4087C29.3689 14.0575 30.4305 13.8771 31.5 13.875H33.25C34.514 13.875 35.7656 14.1239 36.9333 14.6076C38.1011 15.0913 39.1621 15.8003 40.0559 16.6941C40.9497 17.5878 41.6586 18.6489 42.1423 19.8166C42.626 20.9844 42.875 22.236 42.875 23.5H28Z" fill="#232323"/>
<path d="M14.875 32.25H12.25C12.0179 32.25 11.7954 32.1578 11.6313 31.9937C11.4672 31.8296 11.375 31.6071 11.375 31.375C11.375 31.1429 11.4672 30.9204 11.6313 30.7563C11.7954 30.5922 12.0179 30.5 12.25 30.5H14.875C15.1071 30.5 15.3296 30.5922 15.4937 30.7563C15.6578 30.9204 15.75 31.1429 15.75 31.375C15.75 31.6071 15.6578 31.8296 15.4937 31.9937C15.3296 32.1578 15.1071 32.25 14.875 32.25Z" fill="#FBC54C"/>
<path d="M13.7552 41.3062C13.7024 41.2035 13.6705 41.0913 13.6613 40.9762C13.6522 40.8611 13.6659 40.7452 13.7016 40.6354C13.7374 40.5256 13.7946 40.424 13.8699 40.3364C13.9451 40.2488 14.037 40.1769 14.1402 40.125L16.4764 38.935C16.5792 38.8822 16.6914 38.8503 16.8065 38.8412C16.9216 38.832 17.0374 38.8457 17.1472 38.8815C17.2571 38.9172 17.3587 38.9744 17.4463 39.0497C17.5339 39.125 17.6058 39.2168 17.6577 39.32C17.7615 39.5266 17.7792 39.766 17.7071 39.9857C17.6349 40.2054 17.4788 40.3876 17.2727 40.4925L14.9364 41.6912C14.8337 41.744 14.7215 41.7759 14.6064 41.7851C14.4912 41.7943 14.3754 41.7806 14.2656 41.7448C14.1558 41.709 14.0542 41.6518 13.9666 41.5765C13.8789 41.5013 13.8071 41.4094 13.7552 41.3062V41.3062Z" fill="#FBC54C"/>
<path d="M54.25 32.25H51.625C51.3929 32.25 51.1704 32.1578 51.0063 31.9937C50.8422 31.8296 50.75 31.6071 50.75 31.375C50.75 31.1429 50.8422 30.9204 51.0063 30.7563C51.1704 30.5922 51.3929 30.5 51.625 30.5H54.25C54.4821 30.5 54.7046 30.5922 54.8687 30.7563C55.0328 30.9204 55.125 31.1429 55.125 31.375C55.125 31.6071 55.0328 31.8296 54.8687 31.9937C54.7046 32.1578 54.4821 32.25 54.25 32.25Z" fill="#FBC54C"/>
<path d="M48.8425 23.43C48.7387 23.2234 48.7209 22.984 48.7931 22.7643C48.8652 22.5446 49.0214 22.3624 49.2275 22.2575L51.5637 21.0588C51.7714 20.9532 52.0126 20.9344 52.2341 21.0066C52.4556 21.0788 52.6394 21.2361 52.745 21.4438C52.8506 21.6515 52.8693 21.8926 52.7971 22.1141C52.7249 22.3357 52.5677 22.5194 52.36 22.625L50.0237 23.815C49.921 23.8678 49.8088 23.8997 49.6937 23.9089C49.5786 23.918 49.4627 23.9043 49.3529 23.8686C49.2431 23.8328 49.1415 23.7756 49.0539 23.7003C48.9663 23.6251 48.8944 23.5332 48.8425 23.43Z" fill="#FBC54C"/>
<path d="M51.5637 41.6913L49.2275 40.4925C49.0214 40.3876 48.8652 40.2054 48.7931 39.9857C48.7209 39.766 48.7387 39.5266 48.8425 39.32C48.8944 39.2168 48.9663 39.125 49.0539 39.0497C49.1415 38.9744 49.2431 38.9172 49.3529 38.8815C49.4627 38.8457 49.5786 38.832 49.6937 38.8412C49.8088 38.8503 49.921 38.8822 50.0237 38.935L52.36 40.125C52.5677 40.2306 52.7249 40.4144 52.7971 40.6359C52.8693 40.8574 52.8506 41.0986 52.745 41.3062C52.6394 41.5139 52.4556 41.6712 52.2341 41.7434C52.0126 41.8156 51.7714 41.7968 51.5637 41.6913V41.6913Z" fill="#FBC54C"/>
<path d="M25.8563 47.125H32.3751V38.8475L30.1438 37.3512C30.0365 37.2937 29.9424 37.2144 29.8675 37.1184C29.7926 37.0224 29.7386 36.9118 29.7089 36.7938C29.6792 36.6757 29.6744 36.5527 29.6949 36.4327C29.7154 36.3127 29.7608 36.1983 29.828 36.0968C29.8953 35.9953 29.983 35.909 30.0855 35.8433C30.188 35.7777 30.3031 35.7341 30.4234 35.7155C30.5437 35.6968 30.6666 35.7035 30.7842 35.7351C30.9018 35.7666 31.0115 35.8224 31.1063 35.8987L33.2501 37.325L35.3938 35.8987C35.5859 35.7957 35.8096 35.7681 36.021 35.8213C36.2324 35.8745 36.4164 36.0047 36.5368 36.1865C36.6572 36.3682 36.7055 36.5884 36.6721 36.8038C36.6387 37.0193 36.5261 37.2145 36.3563 37.3512L34.1251 38.8475V47.125H40.5826C41.4401 45.0132 42.6733 43.0743 44.2226 41.4025C46.1665 39.2783 47.4521 36.6356 47.9234 33.7951C48.3948 30.9545 48.0315 28.0382 46.8778 25.4C45.7241 22.7619 43.8295 20.5153 41.4239 18.9329C39.0183 17.3504 36.2052 16.5002 33.3258 16.4854C30.4464 16.4705 27.6247 17.2917 25.2029 18.8492C22.7811 20.4067 20.8634 22.6336 19.6825 25.2598C18.5017 27.8859 18.1084 30.7983 18.5504 33.6435C18.9924 36.4888 20.2507 39.1446 22.1726 41.2887C23.7274 43.0075 24.9736 44.982 25.8563 47.125V47.125ZM37.6251 27C38.3173 27 38.994 27.2053 39.5696 27.5898C40.1451 27.9744 40.5937 28.5211 40.8586 29.1606C41.1235 29.8001 41.1929 30.5039 41.0578 31.1828C40.9228 31.8617 40.5894 32.4854 40.0999 32.9749C39.6104 33.4643 38.9868 33.7977 38.3079 33.9327C37.6289 34.0678 36.9252 33.9985 36.2857 33.7336C35.6461 33.4687 35.0995 33.0201 34.7149 32.4445C34.3303 31.8689 34.1251 31.1922 34.1251 30.5C34.1251 29.5717 34.4938 28.6815 35.1502 28.0251C35.8066 27.3687 36.6968 27 37.6251 27V27ZM28.8751 27C29.5673 27 30.244 27.2053 30.8196 27.5898C31.3951 27.9744 31.8437 28.5211 32.1086 29.1606C32.3735 29.8001 32.4429 30.5039 32.3078 31.1828C32.1728 31.8617 31.8394 32.4854 31.3499 32.9749C30.8604 33.4643 30.2368 33.7977 29.5579 33.9327C28.8789 34.0678 28.1752 33.9985 27.5357 33.7336C26.8961 33.4687 26.3495 33.0201 25.9649 32.4445C25.5803 31.8689 25.3751 31.1922 25.3751 30.5C25.3751 29.5717 25.7438 28.6815 26.4002 28.0251C27.0566 27.3687 27.9468 27 28.8751 27Z" fill="#FBC54C"/>
<path d="M26.4688 48.875C26.7152 49.7139 26.8937 50.5712 27.0025 51.4388L27.125 52.48C27.1508 52.6934 27.2542 52.8899 27.4156 53.0319C27.577 53.1739 27.785 53.2516 28 53.25H38.5C38.715 53.2516 38.923 53.1739 39.0844 53.0319C39.2458 52.8899 39.3492 52.6934 39.375 52.48L39.5413 51.1413C39.6415 50.3764 39.7936 49.6193 39.9963 48.875H26.4688Z" fill="#FBC54C"/>
</svg>
