<svg width="48" height="48" viewBox="0 0 48 48" fill="none" xmlns="http://www.w3.org/2000/svg">
<path d="M36 6.74323H25.677L13.8353 0.824978C13.7299 0.777488 13.6156 0.75293 13.5 0.75293C13.3844 0.75293 13.2701 0.777488 13.1648 0.824978L1.99351 6.40798C1.61892 6.59369 1.30386 6.88065 1.08407 7.23632C0.864282 7.59199 0.748554 8.00213 0.750014 8.42023V35.0662C0.750027 35.4498 0.848086 35.827 1.03488 36.1619C1.22167 36.4969 1.491 36.7786 1.81728 36.9802C2.14356 37.1818 2.51596 37.2967 2.89912 37.3139C3.28229 37.3311 3.66348 37.25 4.00651 37.0785L13.5 32.3317L25.1648 38.1637C25.1715 38.1675 25.179 38.1637 25.1858 38.169C25.2837 38.2169 25.391 38.2425 25.5 38.244H36C36.5968 38.244 37.169 38.0069 37.591 37.585C38.013 37.163 38.25 36.5907 38.25 35.994V8.99398C38.2501 8.69844 38.192 8.40578 38.079 8.13271C37.9659 7.85964 37.8002 7.61151 37.5913 7.4025C37.3823 7.19349 37.1343 7.02769 36.8612 6.91457C36.5882 6.80145 36.2956 6.74323 36 6.74323ZM12.75 31.0297L3.33526 35.7367C3.22095 35.7938 3.09393 35.8208 2.96627 35.8151C2.8386 35.8093 2.71453 35.771 2.60581 35.7039C2.49709 35.6367 2.40734 35.5429 2.34507 35.4313C2.2828 35.3197 2.25008 35.194 2.25001 35.0662V22.9567L12.75 17.7067V31.0297ZM12.75 16.0297L2.25001 21.2797V8.42023C2.24957 8.28087 2.28819 8.14418 2.3615 8.02567C2.43481 7.90715 2.53987 7.81156 2.66476 7.74973L12.75 2.70673V16.0297ZM24.75 36.2797L14.25 31.0297V17.7067L24.75 22.9567V36.2797ZM24.75 21.2797L14.25 16.0297V2.70673L24.75 7.95673V21.2797ZM36.75 35.9932C36.75 36.1921 36.671 36.3829 36.5303 36.5236C36.3897 36.6642 36.1989 36.7432 36 36.7432H26.25V23.2432H36.75V35.9932ZM36.75 21.7432H26.25V8.24323H36C36.1989 8.24323 36.3897 8.32225 36.5303 8.4629C36.671 8.60355 36.75 8.79432 36.75 8.99323V21.7432Z" fill="#232323"/>
<path d="M35.25 9.75598C32.0685 9.75955 29.0183 11.025 26.7687 13.2746C24.519 15.5243 23.2536 18.5745 23.25 21.756C23.25 27.4492 26.8455 32.7697 30.0172 37.4647C32.325 40.875 34.5 44.1 34.5 46.506C34.5 46.7049 34.579 46.8957 34.7197 47.0363C34.8603 47.177 35.0511 47.256 35.25 47.256C35.4489 47.256 35.6397 47.177 35.7803 47.0363C35.921 46.8957 36 46.7049 36 46.506C36 44.0977 38.175 40.8757 40.4827 37.4647C43.6545 32.7697 47.25 27.45 47.25 21.756C47.2464 18.5745 45.981 15.5243 43.7313 13.2746C41.4817 11.025 38.4315 9.75955 35.25 9.75598ZM35.25 27.756C34.0633 27.756 32.9033 27.4041 31.9166 26.7448C30.9299 26.0855 30.1608 25.1484 29.7067 24.0521C29.2526 22.9557 29.1338 21.7493 29.3653 20.5854C29.5968 19.4216 30.1682 18.3525 31.0074 17.5133C31.8465 16.6742 32.9156 16.1028 34.0795 15.8713C35.2433 15.6398 36.4497 15.7586 37.5461 16.2127C38.6425 16.6668 39.5795 17.4359 40.2388 18.4226C40.8981 19.4093 41.25 20.5693 41.25 21.756C41.2482 23.3467 40.6155 24.8718 39.4907 25.9967C38.3658 27.1215 36.8408 27.7542 35.25 27.756Z" fill="#FBC54C"/>
<path d="M35.25 26.256C37.7353 26.256 39.75 24.2413 39.75 21.756C39.75 19.2707 37.7353 17.256 35.25 17.256C32.7647 17.256 30.75 19.2707 30.75 21.756C30.75 24.2413 32.7647 26.256 35.25 26.256Z" fill="#FBC54C"/>
</svg>
