<svg width="48" height="48" viewBox="0 0 48 48" fill="none" xmlns="http://www.w3.org/2000/svg">
<path d="M33.7503 29.25C33.7503 27.075 33.6228 25.065 33.4428 23.25H26.5878C26.4078 25.065 26.3028 27.075 26.2803 29.25H33.7503Z" fill="#FBC54C"/>
<path d="M25.0801 23.25H14.1451C13.3327 25.1512 12.8727 27.1843 12.7876 29.25H24.7501C24.7951 27.21 24.9001 25.1775 25.0801 23.25Z" fill="#FBC54C"/>
<path d="M34.9575 36.75H45.8925C46.705 34.8488 47.1649 32.8157 47.25 30.75H35.25C35.25 32.79 35.1375 34.8225 34.9575 36.75Z" fill="#FBC54C"/>
<path d="M26.7603 38.25C27.3528 42.9975 28.4028 46.185 29.3553 47.25C29.7975 47.2725 30.2405 47.2725 30.6828 47.25C31.6353 46.2 32.6853 43.0125 33.2778 38.25H26.7603Z" fill="#FBC54C"/>
<path d="M26.25 30.75C26.25 32.925 26.3775 34.935 26.5575 36.75H33.45C33.63 34.935 33.735 32.925 33.7575 30.75H26.25Z" fill="#FBC54C"/>
<path d="M33.2778 21.75C32.6853 17.0025 31.6353 13.815 30.6828 12.75C30.2405 12.7275 29.7975 12.7275 29.3553 12.75C28.4028 13.8 27.3528 16.9875 26.7603 21.75H33.2778Z" fill="#FBC54C"/>
<path d="M25.2451 38.25H14.8726C16.1542 40.596 17.9625 42.6128 20.1553 44.1419C22.3481 45.671 24.8656 46.6707 27.5101 47.0625C26.4451 45.1125 25.6876 41.925 25.2451 38.25Z" fill="#FBC54C"/>
<path d="M34.7925 38.25C34.35 41.925 33.5925 45.1125 32.5425 47.0625C35.1852 46.6713 37.7009 45.6717 39.8913 44.1424C42.0818 42.6131 43.8871 40.596 45.165 38.25H34.7925Z" fill="#FBC54C"/>
<path d="M25.2451 21.75C25.6876 18.075 26.4451 14.8875 27.495 12.9375C24.8533 13.3315 22.3388 14.3322 20.1487 15.8612C17.9587 17.3902 16.1528 19.4058 14.8726 21.75H25.2451Z" fill="#FBC54C"/>
<path d="M35.1374 25.635C35.2124 26.8275 35.2499 28.035 35.2649 29.25H47.2499C47.1648 27.1843 46.7048 25.1512 45.8924 23.25H37.3799C37.0733 23.2505 36.7701 23.3136 36.4888 23.4355C36.2075 23.5573 35.9541 23.7354 35.7441 23.9587C35.5341 24.1821 35.372 24.446 35.2676 24.7342C35.1633 25.0225 35.119 25.329 35.1374 25.635Z" fill="#FBC54C"/>
<path d="M24.0376 30.75H12.7876C12.8727 32.8157 13.3327 34.8488 14.1451 36.75H25.0801C24.9226 35.055 24.8176 33.2775 24.7876 31.5C24.7876 31.3011 24.7086 31.1103 24.5679 30.9697C24.4273 30.829 24.2365 30.75 24.0376 30.75Z" fill="#FBC54C"/>
<path d="M34.7923 21.75H45.1648C43.8855 19.4022 42.0778 17.3839 39.8846 15.8545C37.6914 14.3251 35.1727 13.3265 32.5273 12.9375C33.5923 14.8875 34.3498 18.075 34.7923 21.75Z" fill="#FBC54C"/>
<path d="M32.8125 8.75253C33.3365 8.35145 33.7659 7.84004 34.0703 7.25452C34.3746 6.669 34.5465 6.02371 34.5736 5.36438C34.6008 4.70504 34.4826 4.0478 34.2275 3.43922C33.9724 2.83065 33.5865 2.28563 33.0973 1.8428C32.608 1.39996 32.0274 1.07015 31.3965 0.876727C30.7656 0.683304 30.0998 0.631005 29.4465 0.723538C28.7931 0.816071 28.1681 1.05117 27.6157 1.41218C27.0633 1.77318 26.597 2.25126 26.25 2.81253C21.9226 1.05003 17.0774 1.05003 12.75 2.81253C12.4001 2.25774 11.9332 1.78614 11.382 1.43075C10.8307 1.07535 10.2084 0.84476 9.55871 0.755112C8.90898 0.665465 8.24751 0.718931 7.62061 0.911767C6.99371 1.1046 6.41654 1.43215 5.92952 1.87146C5.4425 2.31078 5.0574 2.85125 4.80119 3.45502C4.54498 4.0588 4.42385 4.71128 4.44628 5.36678C4.46871 6.02229 4.63417 6.66496 4.93105 7.24981C5.22794 7.83465 5.64909 8.34753 6.165 8.75253C4.57733 9.33349 3.20647 10.3882 2.23796 11.7739C1.26944 13.1596 0.75002 14.8094 0.75 16.5C0.75 16.6989 0.829018 16.8897 0.96967 17.0304C1.11032 17.171 1.30109 17.25 1.5 17.25H1.6575C1.56078 17.9963 1.50819 18.7476 1.5 19.5C1.50764 22.8456 2.44522 26.1232 4.20801 28.9667C5.97081 31.8103 8.48941 34.1077 11.4825 35.6025C11.3287 36.2233 11.2506 36.8605 11.25 37.5C11.25 37.6989 11.329 37.8897 11.4697 38.0304C11.6103 38.171 11.8011 38.25 12 38.25H27C27.1989 38.25 27.3897 38.171 27.5303 38.0304C27.671 37.8897 27.75 37.6989 27.75 37.5C27.7494 36.8605 27.6713 36.2233 27.5175 35.6025C30.5106 34.1077 33.0292 31.8103 34.792 28.9667C36.5548 26.1232 37.4924 22.8456 37.5 19.5C37.4918 18.7476 37.4392 17.9963 37.3425 17.25H37.5C37.6989 17.25 37.8897 17.171 38.0303 17.0304C38.171 16.8897 38.25 16.6989 38.25 16.5C38.2483 14.8067 37.7256 13.1549 36.7528 11.7689C35.7801 10.3829 34.4044 9.32979 32.8125 8.75253ZM30 2.25003C30.5933 2.25003 31.1734 2.42598 31.6667 2.75562C32.1601 3.08526 32.5446 3.5538 32.7716 4.10198C32.9987 4.65016 33.0581 5.25336 32.9424 5.8353C32.8266 6.41724 32.5409 6.95179 32.1213 7.37135C31.7018 7.79091 31.1672 8.07663 30.5853 8.19238C30.0033 8.30814 29.4001 8.24873 28.8519 8.02167C28.3038 7.7946 27.8352 7.41009 27.5056 6.91674C27.1759 6.42339 27 5.84337 27 5.25003C27 4.45438 27.3161 3.69132 27.8787 3.12871C28.4413 2.5661 29.2044 2.25003 30 2.25003ZM6 5.25003C6 4.65668 6.17595 4.07667 6.50559 3.58332C6.83524 3.08997 7.30377 2.70545 7.85195 2.47839C8.40013 2.25133 9.00333 2.19192 9.58527 2.30767C10.1672 2.42343 10.7018 2.70915 11.1213 3.12871C11.5409 3.54827 11.8266 4.08281 11.9424 4.66476C12.0581 5.2467 11.9987 5.8499 11.7716 6.39808C11.5446 6.94626 11.1601 7.41479 10.6667 7.74444C10.1734 8.07408 9.59334 8.25003 9 8.25003C8.20435 8.25003 7.44129 7.93396 6.87868 7.37135C6.31607 6.80874 6 6.04568 6 5.25003ZM9 9.75003C10.6598 9.75082 12.2611 10.3631 13.498 11.4699C14.7349 12.5768 15.5206 14.1005 15.705 15.75H2.295C2.47942 14.1005 3.26513 12.5768 4.50201 11.4699C5.73889 10.3631 7.3402 9.75082 9 9.75003ZM12.795 36.75C12.9858 35.1056 13.7743 33.5886 15.0106 32.4876C16.2468 31.3865 17.8445 30.7781 19.5 30.7781C21.1555 30.7781 22.7532 31.3865 23.9894 32.4876C25.2257 33.5886 26.0142 35.1056 26.205 36.75H12.795ZM16.5 26.25C16.5 25.6567 16.6759 25.0767 17.0056 24.5833C17.3352 24.09 17.8038 23.7055 18.3519 23.4784C18.9001 23.2513 19.5033 23.1919 20.0853 23.3077C20.6672 23.4234 21.2018 23.7091 21.6213 24.1287C22.0409 24.5483 22.3266 25.0828 22.4424 25.6648C22.5581 26.2467 22.4987 26.8499 22.2716 27.3981C22.0446 27.9463 21.6601 28.4148 21.1667 28.7444C20.6734 29.0741 20.0933 29.25 19.5 29.25C18.7044 29.25 17.9413 28.934 17.3787 28.3713C16.8161 27.8087 16.5 27.0457 16.5 26.25ZM27 34.1625C26.5498 33.1473 25.8993 32.2333 25.0873 31.4756C24.2754 30.7178 23.3189 30.1317 22.275 29.7525C23.0028 29.1698 23.5316 28.3755 23.7884 27.4792C24.0452 26.5829 24.0173 25.6291 23.7085 24.7494C23.3998 23.8696 22.8254 23.1076 22.0647 22.5684C21.3041 22.0293 20.3948 21.7397 19.4625 21.7397C18.5302 21.7397 17.6209 22.0293 16.8603 22.5684C16.0996 23.1076 15.5252 23.8696 15.2165 24.7494C14.9077 25.6291 14.8798 26.5829 15.1366 27.4792C15.3934 28.3755 15.9222 29.1698 16.65 29.7525C15.6199 30.1403 14.6779 30.7302 13.8793 31.4876C13.0807 32.2449 12.4417 33.1544 12 34.1625C8.93677 32.6302 6.43476 30.1709 4.84991 27.1345C3.26506 24.0981 2.67809 20.6393 3.1725 17.25H16.5C16.6989 17.25 16.8897 17.171 17.0303 17.0304C17.171 16.8897 17.25 16.6989 17.25 16.5C17.2483 14.8067 16.7256 13.1549 15.7528 11.7689C14.7801 10.3829 13.4044 9.32979 11.8125 8.75253C12.3377 8.33201 12.762 7.79907 13.054 7.19292C13.3461 6.58678 13.4985 5.92286 13.5 5.25003C13.4972 4.89095 13.4518 4.53346 13.365 4.18503C17.3049 2.61773 21.6951 2.61773 25.635 4.18503C25.5482 4.53346 25.5028 4.89095 25.5 5.25003C25.5015 5.92286 25.6539 6.58678 25.946 7.19292C26.238 7.79907 26.6623 8.33201 27.1875 8.75253C25.5956 9.32979 24.2199 10.3829 23.2472 11.7689C22.2744 13.1549 21.7517 14.8067 21.75 16.5C21.75 16.6989 21.829 16.8897 21.9697 17.0304C22.1103 17.171 22.3011 17.25 22.5 17.25H35.8275C36.3251 20.6351 35.7436 24.0909 34.1658 27.1269C32.5879 30.1628 30.0938 32.6245 27.0375 34.1625H27ZM23.295 15.75C23.4858 14.1056 24.2743 12.5886 25.5106 11.4876C26.7468 10.3865 28.3445 9.77815 30 9.77815C31.6555 9.77815 33.2532 10.3865 34.4894 11.4876C35.7257 12.5886 36.5142 14.1056 36.705 15.75H23.295Z" fill="#232323"/>
</svg>
