<svg width="56" height="56" viewBox="0 0 56 56" fill="none" xmlns="http://www.w3.org/2000/svg">
<path d="M36.3038 13.5537C37.4056 12.7273 38.2196 11.5751 38.6302 10.2604C39.0409 8.94572 39.0275 7.53512 38.592 6.22845C38.1564 4.92178 37.3208 3.78527 36.2034 2.97992C35.086 2.17457 33.7436 1.7412 32.3663 1.7412C30.9889 1.7412 29.6465 2.17457 28.5291 2.97992C27.4117 3.78527 26.5761 4.92178 26.1405 6.22845C25.705 7.53512 25.6916 8.94572 26.1023 10.2604C26.5129 11.5751 27.3269 12.7273 28.4288 13.5537C28.0001 13.6733 27.5793 13.8194 27.1687 13.9912C25.962 12.8662 24.3735 12.2407 22.7237 12.2407C21.074 12.2407 19.4855 12.8662 18.2787 13.9912C17.8682 13.8194 17.4474 13.6733 17.0188 13.5537C18.1206 12.7273 18.9346 11.5751 19.3452 10.2604C19.7559 8.94572 19.7425 7.53512 19.307 6.22845C18.8714 4.92178 18.0358 3.78527 16.9184 2.97992C15.801 2.17457 14.4586 1.7412 13.0813 1.7412C11.7039 1.7412 10.3615 2.17457 9.24409 2.97992C8.12672 3.78527 7.29107 4.92178 6.85552 6.22845C6.41996 7.53512 6.40657 8.94572 6.81726 10.2604C7.22794 11.5751 8.04187 12.7273 9.14375 13.5537C6.76201 14.2298 4.66588 15.6645 3.17356 17.6401C1.68124 19.6156 0.874219 22.0241 0.875001 24.4999V25.3749C0.875001 25.607 0.967188 25.8296 1.13128 25.9937C1.29538 26.1578 1.51794 26.2499 1.75 26.2499H14.6125C13.3264 27.3168 12.2911 28.654 11.5804 30.1663C10.8696 31.6786 10.5007 33.3289 10.5 34.9999V35.8749C10.5 36.107 10.5922 36.3296 10.7563 36.4937C10.9204 36.6578 11.1429 36.7499 11.375 36.7499H34.125C34.3571 36.7499 34.5796 36.6578 34.7437 36.4937C34.9078 36.3296 35 36.107 35 35.8749V34.9999C34.9982 33.3282 34.628 31.6775 33.9157 30.1651C33.2034 28.6527 32.1665 27.316 30.8787 26.2499H43.75C43.9821 26.2499 44.2046 26.1578 44.3687 25.9937C44.5328 25.8296 44.625 25.607 44.625 25.3749V24.4999C44.6226 22.0173 43.808 19.6036 42.3055 17.6272C40.8031 15.6508 38.6953 14.2202 36.3038 13.5537ZM27.5537 8.3037C27.5555 7.35262 27.839 6.42338 28.3684 5.63331C28.8979 4.84324 29.6496 4.22777 30.5286 3.86461C31.4076 3.50145 32.3745 3.40688 33.3073 3.59285C34.24 3.77882 35.0967 4.23699 35.7692 4.9095C36.4417 5.58202 36.8999 6.43872 37.0858 7.37144C37.2718 8.30415 37.1772 9.27106 36.8141 10.1501C36.4509 11.0291 35.8354 11.7808 35.0454 12.3102C34.2553 12.8397 33.3261 13.1232 32.375 13.1249C31.0994 13.1226 29.8766 12.6149 28.9746 11.7128C28.0726 10.8108 27.5648 9.58809 27.5625 8.31245L27.5537 8.3037ZM22.75 13.9999C23.7018 13.9999 24.6323 14.2822 25.4237 14.811C26.2151 15.3398 26.8319 16.0914 27.1962 16.9708C27.5604 17.8502 27.6557 18.8178 27.47 19.7513C27.2843 20.6849 26.826 21.5424 26.153 22.2154C25.4799 22.8884 24.6224 23.3468 23.6889 23.5325C22.7553 23.7182 21.7877 23.6229 20.9083 23.2586C20.029 22.8944 19.2774 22.2775 18.7486 21.4861C18.2197 20.6947 17.9375 19.7643 17.9375 18.8124C17.9398 17.5368 18.4476 16.3141 19.3496 15.4121C20.2516 14.51 21.4744 14.0023 22.75 13.9999ZM8.3125 8.31245C8.3125 7.36062 8.59475 6.43018 9.12355 5.63876C9.65236 4.84735 10.404 4.23052 11.2833 3.86628C12.1627 3.50203 13.1303 3.40673 14.0639 3.59242C14.9974 3.77811 15.8549 4.23645 16.528 4.90949C17.201 5.58253 17.6593 6.44004 17.845 7.37357C18.0307 8.30711 17.9354 9.27474 17.5712 10.1541C17.2069 11.0335 16.5901 11.7851 15.7987 12.3139C15.0073 12.8427 14.0768 13.1249 13.125 13.1249C11.8494 13.1226 10.6266 12.6149 9.7246 11.7128C8.82259 10.8108 8.31481 9.58809 8.3125 8.31245ZM2.625 24.4999C2.625 21.9472 3.63906 19.4991 5.4441 17.694C7.24914 15.889 9.69729 14.8749 12.25 14.8749H14C15.0724 14.8761 16.1371 15.0565 17.15 15.4087C16.2974 16.7978 15.9961 18.4558 16.3055 20.056C16.6148 21.6562 17.5124 23.0825 18.8213 24.0537C18.3714 24.173 17.93 24.3221 17.5 24.4999H2.625ZM33.25 34.9999H12.25C12.25 32.4472 13.2641 29.9991 15.0691 28.194C16.8741 26.389 19.3223 25.3749 21.875 25.3749H23.625C26.1777 25.3749 28.6259 26.389 30.4309 28.194C32.2359 29.9991 33.25 32.4472 33.25 34.9999ZM28 24.4999C27.5728 24.3224 27.1344 24.1734 26.6875 24.0537C27.9964 23.0825 28.8939 21.6562 29.2033 20.056C29.5126 18.4558 29.2113 16.7978 28.3587 15.4087C29.3689 15.0575 30.4305 14.8771 31.5 14.8749H33.25C34.514 14.8749 35.7656 15.1239 36.9333 15.6076C38.1011 16.0913 39.1621 16.8003 40.0559 17.694C40.9497 18.5878 41.6586 19.6489 42.1423 20.8166C42.626 21.9844 42.875 23.236 42.875 24.4999H28Z" fill="white"/>
<path d="M14.875 33.25H12.25C12.0179 33.25 11.7954 33.1578 11.6313 32.9937C11.4672 32.8296 11.375 32.6071 11.375 32.375C11.375 32.1429 11.4672 31.9204 11.6313 31.7563C11.7954 31.5922 12.0179 31.5 12.25 31.5H14.875C15.1071 31.5 15.3296 31.5922 15.4937 31.7563C15.6578 31.9204 15.75 32.1429 15.75 32.375C15.75 32.6071 15.6578 32.8296 15.4937 32.9937C15.3296 33.1578 15.1071 33.25 14.875 33.25Z" fill="#FBC54C"/>
<path d="M13.7552 42.3062C13.7024 42.2035 13.6705 42.0913 13.6613 41.9762C13.6522 41.8611 13.6658 41.7452 13.7016 41.6354C13.7374 41.5256 13.7946 41.424 13.8699 41.3364C13.9451 41.2488 14.037 41.1769 14.1402 41.125L16.4764 39.935C16.5792 39.8822 16.6914 39.8503 16.8065 39.8412C16.9216 39.832 17.0374 39.8457 17.1472 39.8815C17.2571 39.9172 17.3587 39.9744 17.4463 40.0497C17.5339 40.125 17.6058 40.2168 17.6577 40.32C17.7615 40.5266 17.7792 40.766 17.7071 40.9857C17.6349 41.2054 17.4788 41.3876 17.2727 41.4925L14.9364 42.6912C14.8337 42.744 14.7215 42.7759 14.6064 42.7851C14.4912 42.7943 14.3754 42.7806 14.2656 42.7448C14.1558 42.709 14.0542 42.6518 13.9666 42.5765C13.8789 42.5013 13.8071 42.4094 13.7552 42.3062Z" fill="#FBC54C"/>
<path d="M54.25 33.25H51.625C51.3929 33.25 51.1704 33.1578 51.0063 32.9937C50.8422 32.8296 50.75 32.6071 50.75 32.375C50.75 32.1429 50.8422 31.9204 51.0063 31.7563C51.1704 31.5922 51.3929 31.5 51.625 31.5H54.25C54.4821 31.5 54.7046 31.5922 54.8687 31.7563C55.0328 31.9204 55.125 32.1429 55.125 32.375C55.125 32.6071 55.0328 32.8296 54.8687 32.9937C54.7046 33.1578 54.4821 33.25 54.25 33.25Z" fill="#FBC54C"/>
<path d="M48.8425 24.43C48.7387 24.2234 48.7209 23.984 48.7931 23.7643C48.8652 23.5446 49.0214 23.3624 49.2275 23.2575L51.5637 22.0588C51.7714 21.9532 52.0126 21.9344 52.2341 22.0066C52.4556 22.0788 52.6394 22.2361 52.745 22.4438C52.8506 22.6515 52.8693 22.8926 52.7971 23.1141C52.7249 23.3357 52.5677 23.5194 52.36 23.625L50.0237 24.815C49.921 24.8678 49.8088 24.8997 49.6937 24.9089C49.5786 24.9181 49.4627 24.9044 49.3529 24.8686C49.2431 24.8328 49.1415 24.7756 49.0539 24.7003C48.9663 24.6251 48.8944 24.5332 48.8425 24.43Z" fill="#FBC54C"/>
<path d="M51.5637 42.6913L49.2275 41.4925C49.0214 41.3876 48.8652 41.2054 48.7931 40.9857C48.7209 40.766 48.7387 40.5266 48.8425 40.32C48.8944 40.2168 48.9663 40.125 49.0539 40.0497C49.1415 39.9744 49.2431 39.9172 49.3529 39.8815C49.4627 39.8457 49.5786 39.832 49.6937 39.8412C49.8088 39.8503 49.921 39.8822 50.0237 39.935L52.36 41.125C52.5677 41.2306 52.7249 41.4144 52.7971 41.6359C52.8693 41.8574 52.8506 42.0986 52.745 42.3062C52.6394 42.5139 52.4556 42.6712 52.2341 42.7434C52.0126 42.8156 51.7714 42.7968 51.5637 42.6913Z" fill="#FBC54C"/>
<path d="M25.8563 48.125H32.3751V39.8475L30.1438 38.3512C30.0365 38.2937 29.9424 38.2144 29.8675 38.1184C29.7926 38.0224 29.7386 37.9118 29.7089 37.7938C29.6792 37.6757 29.6744 37.5527 29.6949 37.4327C29.7154 37.3127 29.7608 37.1983 29.828 37.0968C29.8953 36.9953 29.983 36.909 30.0855 36.8433C30.188 36.7777 30.3031 36.7341 30.4234 36.7155C30.5437 36.6968 30.6666 36.7035 30.7842 36.7351C30.9018 36.7666 31.0115 36.8224 31.1063 36.8987L33.2501 38.325L35.3938 36.8987C35.5859 36.7957 35.8096 36.7681 36.021 36.8213C36.2324 36.8745 36.4164 37.0047 36.5368 37.1865C36.6572 37.3682 36.7055 37.5884 36.6721 37.8038C36.6387 38.0193 36.5261 38.2145 36.3563 38.3512L34.1251 39.8475V48.125H40.5826C41.4401 46.0132 42.6733 44.0743 44.2226 42.4025C46.1665 40.2783 47.4521 37.6356 47.9234 34.7951C48.3948 31.9545 48.0315 29.0382 46.8778 26.4C45.7241 23.7619 43.8295 21.5153 41.4239 19.9329C39.0183 18.3504 36.2052 17.5002 33.3258 17.4854C30.4464 17.4705 27.6247 18.2917 25.2029 19.8492C22.7811 21.4067 20.8634 23.6336 19.6825 26.2598C18.5017 28.8859 18.1084 31.7983 18.5504 34.6435C18.9924 37.4888 20.2506 40.1446 22.1726 42.2887C23.7274 44.0075 24.9736 45.982 25.8563 48.125ZM37.6251 28C38.3173 28 38.994 28.2053 39.5695 28.5898C40.1451 28.9744 40.5937 29.5211 40.8586 30.1606C41.1235 30.8001 41.1928 31.5039 41.0578 32.1828C40.9228 32.8617 40.5894 33.4854 40.0999 33.9749C39.6104 34.4643 38.9868 34.7977 38.3079 34.9327C37.6289 35.0678 36.9252 34.9985 36.2857 34.7336C35.6461 34.4687 35.0995 34.0201 34.7149 33.4445C34.3303 32.8689 34.1251 32.1922 34.1251 31.5C34.1251 30.5717 34.4938 29.6815 35.1502 29.0251C35.8066 28.3687 36.6968 28 37.6251 28ZM28.8751 28C29.5673 28 30.244 28.2053 30.8195 28.5898C31.3951 28.9744 31.8437 29.5211 32.1086 30.1606C32.3735 30.8001 32.4428 31.5039 32.3078 32.1828C32.1728 32.8617 31.8394 33.4854 31.3499 33.9749C30.8604 34.4643 30.2368 34.7977 29.5579 34.9327C28.8789 35.0678 28.1752 34.9985 27.5357 34.7336C26.8961 34.4687 26.3495 34.0201 25.9649 33.4445C25.5803 32.8689 25.3751 32.1922 25.3751 31.5C25.3751 30.5717 25.7438 29.6815 26.4002 29.0251C27.0566 28.3687 27.9468 28 28.8751 28Z" fill="#FBC54C"/>
<path d="M26.4688 49.875C26.7152 50.7139 26.8937 51.5712 27.0025 52.4388L27.125 53.48C27.1508 53.6934 27.2542 53.8899 27.4156 54.0319C27.577 54.1739 27.785 54.2516 28 54.25H38.5C38.715 54.2516 38.923 54.1739 39.0844 54.0319C39.2458 53.8899 39.3492 53.6934 39.375 53.48L39.5413 52.1413C39.6415 51.3764 39.7936 50.6193 39.9963 49.875H26.4688Z" fill="#FBC54C"/>
</svg>
