<svg width="221" height="60" viewBox="0 0 221 60" fill="none" xmlns="http://www.w3.org/2000/svg">
<g clip-path="url(#clip0)">
<path d="M83.453 17.8541V18.0088C83.0702 18.0346 82.7385 18.0862 82.4323 18.1377C82.1516 18.2151 81.8453 18.3698 81.5646 18.6534C81.3605 18.8596 81.2074 18.9885 81.1308 19.0659C81.0543 19.1432 80.9777 19.2206 80.8756 19.2979L76.2567 23.9387L81.7943 30.2553C82.2281 30.7451 82.5854 31.0545 82.8916 31.1576C83.1978 31.2865 83.5806 31.3639 84.0655 31.4412V31.5959H81.1308L75.0573 24.6348V29.9201C75.0573 30.8998 75.5422 31.3897 76.5119 31.4412V31.5959H72.1992V31.4412C72.4799 31.4155 72.7096 31.3897 72.9137 31.2865C73.1179 31.2092 73.2965 31.0545 73.4241 30.8225C73.5517 30.5904 73.6282 30.3068 73.6282 29.9201V19.5042C73.6282 18.937 73.4751 18.5245 73.1944 18.344C72.9392 18.1377 72.582 18.0346 72.1992 18.0088V17.8541H76.5119V18.0088C75.5422 18.0346 75.0573 18.5245 75.0573 19.5042V24.5832L80.2632 19.3237C80.2632 19.3495 80.2887 19.3237 80.2887 19.2721C80.5694 19.0143 80.7225 18.7823 80.7225 18.576C80.7225 18.3698 80.646 18.2151 80.4673 18.1635C80.2887 18.1119 80.0335 18.0604 79.7017 18.0346V17.8541H83.453Z" fill="black"/>
<path d="M91.0323 17.6993L95.0898 29.4559C95.2939 30.0747 95.4981 30.513 95.7022 30.7708C95.8809 31.0544 96.085 31.2091 96.2381 31.2865C96.4167 31.3638 96.6464 31.4154 96.9016 31.4411V31.5958H92.4868V31.4411C92.9462 31.4411 93.3034 31.3896 93.5331 31.3122C93.7883 31.2349 93.8904 30.9771 93.8904 30.5903C93.8904 30.3841 93.8393 30.1005 93.7117 29.7395C93.6862 29.688 93.6862 29.6622 93.6862 29.6364L92.4868 26.0011H87.7914L86.7196 29.3786C86.5664 29.8169 86.4899 30.2036 86.4899 30.4872C86.4899 30.8739 86.592 31.1318 86.7706 31.2607C86.9492 31.3896 87.2299 31.4411 87.5872 31.4411V31.5958H84.3973V31.4411C84.8567 31.3896 85.2139 31.2349 85.4947 30.9255C85.7754 30.6161 86.005 30.152 86.2092 29.5333L90.037 17.6993H91.0323ZM87.9445 25.5113H92.2572L90.0625 18.9884H90.037L87.9445 25.5113Z" fill="black"/>
<path d="M106.803 18.3955H100.296C99.7597 18.3955 99.3258 18.4471 98.9686 18.576C98.6368 18.7049 98.3561 18.9112 98.152 19.1948C97.9478 19.4784 97.7947 19.8651 97.7182 20.3808H97.565V17.8541H108.691V18.1119L99.3003 31.0545H105.808C106.522 31.0545 107.109 30.9772 107.517 30.8225C107.926 30.6678 108.232 30.4615 108.385 30.2295C108.564 29.9974 108.742 29.6623 108.946 29.2756H109.1L108.462 31.5701H97.4119V31.2865L106.803 18.3955Z" fill="black"/>
<path d="M116.219 17.6993L120.277 29.4559C120.481 30.0747 120.685 30.513 120.889 30.7708C121.068 31.0544 121.272 31.2091 121.425 31.2865C121.604 31.3638 121.834 31.4154 122.089 31.4411V31.5958H117.648V31.4411C118.108 31.4411 118.465 31.3896 118.695 31.3122C118.95 31.2349 119.052 30.9771 119.052 30.5903C119.052 30.3841 119.001 30.1005 118.873 29.7395C118.848 29.688 118.848 29.6622 118.848 29.6364L117.648 26.0011H112.953L111.881 29.3786C111.728 29.8427 111.651 30.2036 111.651 30.4872C111.651 30.8739 111.754 31.1318 111.932 31.2607C112.111 31.3896 112.391 31.4411 112.749 31.4411V31.5958H109.559V31.4411C110.018 31.3896 110.376 31.2349 110.656 30.9255C110.937 30.6161 111.167 30.152 111.371 29.5333L115.199 17.7251H116.219V17.6993ZM113.132 25.5113H117.444L115.25 18.9884H115.224L113.132 25.5113Z" fill="black"/>
<path d="M134.236 17.8541V18.0088C133.853 18.0346 133.521 18.0862 133.215 18.1377C132.934 18.2151 132.628 18.3698 132.347 18.6534C132.143 18.8596 131.99 18.9885 131.913 19.0659C131.837 19.1432 131.76 19.2206 131.658 19.2979L127.039 23.9129L132.577 30.2295C133.011 30.7193 133.368 31.0287 133.674 31.1319C133.98 31.2608 134.363 31.3381 134.848 31.4155V31.5702H131.913L125.84 24.6348V29.9201C125.84 30.8998 126.325 31.3897 127.295 31.4412V31.5959H122.982V31.4412C123.263 31.4155 123.492 31.3897 123.696 31.2865C123.901 31.2092 124.079 31.0545 124.207 30.8225C124.334 30.5904 124.411 30.3068 124.411 29.9201V19.5042C124.411 18.937 124.258 18.5245 123.977 18.344C123.696 18.1377 123.339 18.0346 122.956 18.0346V17.8541H127.269V18.0088C126.299 18.0346 125.814 18.5245 125.814 19.5042V24.5832L131.02 19.3237C131.02 19.3495 131.02 19.3237 131.046 19.2721C131.327 19.0143 131.48 18.7823 131.48 18.576C131.48 18.3698 131.403 18.2151 131.224 18.1635C131.046 18.1119 130.791 18.0604 130.459 18.0346V17.8541H134.236Z" fill="black"/>
<path d="M146.204 24.1449V19.5557C146.204 19.1174 146.076 18.7307 145.847 18.4471C145.617 18.1635 145.234 18.0088 144.724 18.0088V17.8541H149.037V18.0088C148.526 18.0088 148.169 18.1635 147.939 18.4213C147.71 18.7049 147.582 19.0659 147.582 19.53V29.8943C147.582 30.8998 148.067 31.4155 149.037 31.4155V31.5701H144.724V31.4155C145.183 31.4155 145.541 31.2865 145.796 31.0287C146.051 30.7709 146.179 30.41 146.179 29.9201V24.5574H138.395V29.9201C138.395 30.41 138.523 30.7709 138.804 31.0287C139.084 31.2865 139.442 31.4155 139.875 31.4155V31.5701H135.563V31.4155C136.022 31.4155 136.379 31.2865 136.634 31.0287C136.89 30.7709 137.017 30.3842 137.017 29.9201V19.5557C137.017 18.5245 136.532 18.0346 135.563 18.0346V17.8541H139.875V18.0088C139.365 18.0088 138.982 18.1635 138.753 18.4213C138.523 18.7049 138.395 19.0659 138.395 19.53V24.1449H146.204Z" fill="black"/>
<path d="M160.98 17.8541V18.0088C160.571 18.0088 160.239 18.1119 159.959 18.344C159.678 18.576 159.525 18.9628 159.525 19.4784V29.8943C159.525 30.41 159.678 30.7967 159.984 31.0545C160.291 31.2865 160.622 31.4155 160.98 31.4155V31.5701H156.667V31.4155C157.05 31.4155 157.407 31.2865 157.688 31.0545C157.968 30.8225 158.121 30.4357 158.121 29.8943V19.5042C158.121 18.937 157.968 18.5502 157.688 18.3182C157.407 18.1119 157.075 18.0088 156.667 18.0088V17.8541H160.98Z" fill="black"/>
<path d="M176.419 17.8541V18.0088C176.061 18.0604 175.806 18.1377 175.602 18.2151C175.398 18.2924 175.245 18.4729 175.143 18.7565C175.041 19.0143 174.964 19.401 174.964 19.8909V31.9311H174.862L164.425 20.1745V28.6052C164.425 29.3013 164.45 29.817 164.501 30.1779C164.552 30.5131 164.629 30.7709 164.731 30.8998C164.961 31.235 165.343 31.3897 165.93 31.4155V31.5702H162.536V31.4155C162.919 31.3897 163.225 31.3123 163.429 31.1576C163.634 31.0029 163.787 30.7451 163.889 30.3584C163.965 29.9717 164.016 29.3787 164.016 28.6052V19.6846L163.557 19.169C163.149 18.7049 162.842 18.4213 162.587 18.2924C162.358 18.1635 162.051 18.0862 161.694 18.0088V17.8541H164.246L174.505 29.4818V20.6386C174.505 19.9682 174.479 19.4784 174.428 19.1432C174.377 18.8081 174.249 18.5502 174.02 18.344C173.79 18.1377 173.433 18.0346 172.973 18.0088V17.8541H176.419Z" fill="black"/>
<path d="M189.79 17.8541V18.0088C189.433 18.0604 189.152 18.1635 188.923 18.3698C188.693 18.5502 188.489 18.8081 188.336 19.1174C188.183 19.4268 188.004 19.8393 187.8 20.3292C187.774 20.355 187.749 20.4323 187.698 20.5612L183.768 31.9311H183.64L179.047 19.6331C179.047 19.6073 179.021 19.5815 179.021 19.53C178.843 19.0143 178.613 18.6276 178.307 18.3698C178.026 18.1377 177.643 18.0088 177.21 18.0088V17.8541H181.675V18.0088C181.293 18.0346 180.986 18.1119 180.782 18.2409C180.553 18.344 180.45 18.6276 180.45 19.0401C180.45 19.1432 180.501 19.3753 180.604 19.7362C180.604 19.762 180.629 19.7878 180.629 19.8393C180.629 19.8651 180.655 19.8909 180.655 19.9167L184.227 29.5592H184.253L187.315 20.587C187.519 19.9683 187.647 19.5042 187.647 19.1948C187.647 18.7049 187.545 18.3955 187.341 18.2666C187.136 18.1377 186.83 18.0604 186.422 18.0346V17.8541H189.79Z" fill="black"/>
<path d="M190.683 18.0088V17.8541H198.773V20.0198H198.645C198.645 18.8596 197.88 18.2924 196.349 18.2924H193.516V24.5317H196.017C196.502 24.5317 196.961 24.4543 197.344 24.2996C197.727 24.1449 197.956 23.7582 198.007 23.191H198.135V26.3106H198.007C197.956 25.9497 197.854 25.6919 197.701 25.4856C197.548 25.3051 197.395 25.1762 197.242 25.0989C197.089 25.0473 196.961 24.9957 196.834 24.9957C196.604 24.97 196.374 24.9442 196.145 24.9442H193.542V29.817C193.542 30.1779 193.618 30.5131 193.746 30.7709C193.873 31.0287 194.205 31.1576 194.715 31.1576H196.731C197.216 31.1576 197.625 31.0803 197.931 30.9514C198.237 30.7967 198.492 30.6162 198.671 30.3584C198.85 30.1006 199.003 29.7912 199.13 29.4302H199.258L198.799 31.5701H190.709V31.4155H190.888C191.168 31.4155 191.449 31.2865 191.73 31.0545C192.01 30.8225 192.138 30.4357 192.138 29.8943V19.5815C192.138 19.169 192.036 18.7823 191.857 18.4729C191.679 18.1635 191.347 18.0088 190.862 18.0088H190.683Z" fill="black"/>
<path d="M207.296 20.5096H207.143C207.067 19.8393 206.76 19.272 206.276 18.7564C205.791 18.2665 205.153 18.0087 204.336 18.0087C203.826 18.0087 203.341 18.1376 202.933 18.3697C202.524 18.6275 202.218 18.9627 201.988 19.3752C201.759 19.8135 201.657 20.3033 201.657 20.8447C201.657 21.283 201.733 21.644 201.861 21.9792C201.988 22.3143 202.193 22.5979 202.448 22.8557C202.703 23.1136 203.009 23.3456 203.366 23.5776C203.724 23.8097 204.183 24.0675 204.795 24.4027C205.791 24.9441 206.556 25.5113 207.118 26.0527C207.679 26.5941 207.96 27.3676 207.96 28.3215C207.96 28.9145 207.807 29.4559 207.501 30.0231C207.194 30.5646 206.76 31.0029 206.148 31.3638C205.536 31.7248 204.795 31.8794 203.902 31.8794C203.341 31.8794 202.856 31.8279 202.422 31.699C201.988 31.5701 201.555 31.4154 201.121 31.1833C200.942 31.1318 200.815 31.0802 200.738 31.0802C200.61 31.0802 200.534 31.1318 200.483 31.2091C200.432 31.3122 200.381 31.4927 200.33 31.8021H200.177V28.4247H200.33C200.559 29.4302 200.993 30.2036 201.631 30.7193C202.269 31.2349 203.035 31.4927 203.953 31.4927C204.642 31.4927 205.204 31.3638 205.612 31.106C206.02 30.8482 206.301 30.5388 206.48 30.152C206.633 29.7911 206.709 29.4044 206.709 29.0434C206.709 28.27 206.48 27.6512 206.02 27.1613C205.561 26.6715 204.847 26.1816 203.902 25.666C203.239 25.305 202.78 25.0214 202.448 24.8152C202.142 24.6089 201.81 24.3511 201.504 24.0417C201.172 23.7323 200.917 23.3456 200.738 22.9073C200.559 22.469 200.457 21.9792 200.457 21.412C200.457 20.7674 200.636 20.1486 200.968 19.5556C201.299 18.9627 201.784 18.4986 202.397 18.1376C203.009 17.7767 203.724 17.5962 204.515 17.5962C205.102 17.5962 205.714 17.6993 206.352 17.9056C206.454 17.9572 206.582 17.9829 206.76 17.9829C206.965 17.9829 207.092 17.854 207.169 17.5704H207.322V20.5096H207.296Z" fill="black"/>
<path d="M220.77 20.5354H220.617C220.541 19.633 220.285 19.0658 219.852 18.808C219.392 18.5502 218.856 18.4213 218.193 18.4213H215.488V29.9458C215.488 30.9255 215.973 31.4154 216.968 31.467V31.6217H212.655V31.467C213.064 31.467 213.395 31.3381 213.676 31.106C213.957 30.874 214.084 30.4873 214.084 29.9458V18.3955H211.379C210.716 18.3955 210.18 18.5244 209.721 18.7822C209.287 19.04 209.006 19.633 208.93 20.5096H208.776V17.1837H208.93C209.032 17.3384 209.108 17.4416 209.185 17.5189C209.261 17.5963 209.363 17.6478 209.466 17.6994C209.593 17.7509 209.721 17.7767 209.874 17.8025C210.027 17.8283 210.206 17.8283 210.435 17.8283H219.239C219.826 17.8283 220.285 17.5963 220.592 17.158H220.745V20.5354H220.77Z" fill="black"/>
<path d="M189.178 47.194H189.663V44.8479L191.271 42.0892H190.735L189.433 44.3838L188.132 42.0892H187.596L189.204 44.8479V47.194H189.178ZM181.114 47.194H181.599V43.1463L185.427 47.4003V42.115H184.942V46.1627L181.114 41.9087V47.194ZM175.806 45.1315L176.699 43.0431L177.592 45.1315H175.806ZM174.428 47.194H174.938L175.627 45.544H177.746L178.435 47.194H178.945L176.674 41.9345L174.428 47.194ZM170.166 42.5017H171.06C171.238 42.5017 172.08 42.4759 172.08 43.4299C172.08 44.3064 171.417 44.3838 171.06 44.3838H170.166V42.5017ZM169.656 47.194H170.141V44.7963H171.06C171.595 44.7963 172.565 44.6674 172.565 43.4299C172.565 42.2181 171.595 42.0892 171.06 42.0892H169.656V47.194ZM161.694 47.194H162.153L162.638 43.4299L164.501 47.4003L166.364 43.4299L166.849 47.194H167.308L166.619 41.8829L164.501 46.4206L162.383 41.8829L161.694 47.194ZM156.82 46.9362C155.595 46.9362 154.625 45.9823 154.625 44.6416C154.625 43.3009 155.595 42.347 156.82 42.347C158.045 42.347 159.04 43.3009 159.04 44.6416C159.04 45.9823 158.07 46.9362 156.82 46.9362ZM156.82 47.3487C158.326 47.3487 159.551 46.2659 159.551 44.6416C159.551 43.0431 158.326 41.9345 156.82 41.9345C155.314 41.9345 154.09 43.0173 154.09 44.6416C154.115 46.2659 155.34 47.3487 156.82 47.3487ZM152.048 46.1885C151.563 46.6526 150.9 46.9362 150.211 46.9362C148.986 46.9362 148.118 45.8791 148.118 44.6416C148.118 43.3267 149.088 42.347 150.211 42.347C150.721 42.347 151.385 42.4759 152.048 43.1205V42.5533C151.359 42.0376 150.721 41.9345 150.211 41.9345C148.782 41.9345 147.608 43.0431 147.608 44.6416C147.608 46.1627 148.68 47.3487 150.211 47.3487C150.772 47.3487 151.461 47.194 152.048 46.7557V46.1885ZM141.891 47.194H144.01V46.7815H142.376V42.115H141.891V47.194ZM136.584 45.1315L137.477 43.0431L138.37 45.1315H136.584ZM135.206 47.194H135.716L136.405 45.544H138.523L139.212 47.194H139.722L137.451 41.9345L135.206 47.194ZM128.724 47.194H129.209V43.1463L133.036 47.4003V42.115H132.552V46.1627L128.724 41.9087V47.194ZM123.518 46.9362C122.293 46.9362 121.323 45.9823 121.323 44.6416C121.323 43.3009 122.293 42.347 123.518 42.347C124.743 42.347 125.738 43.3009 125.738 44.6416C125.712 45.9823 124.743 46.9362 123.518 46.9362ZM123.518 47.3487C125.023 47.3487 126.248 46.2659 126.248 44.6416C126.248 43.0431 125.023 41.9345 123.518 41.9345C122.012 41.9345 120.787 43.0173 120.787 44.6416C120.787 46.2659 122.012 47.3487 123.518 47.3487ZM117.802 47.194H118.286V42.115H117.802V47.194ZM113.821 47.194H114.306V42.5017H115.658V42.0892H112.468V42.5017H113.821V47.194ZM107.722 45.1315L108.615 43.0431L109.508 45.1315H107.722ZM106.344 47.194H106.854L107.543 45.544H109.661L110.35 47.194H110.86L108.589 41.9345L106.344 47.194ZM99.8618 47.194H100.347V43.1463L104.175 47.4003V42.115H103.69V46.1627L99.8618 41.9087V47.194Z" fill="#54514C"/>
</g>
<g clip-path="url(#clip1)">
<path d="M58.7623 29.9327C57.7664 28.7978 46.2612 17.2774 43.7541 16.1081C41.7621 15.1796 39.6672 17.4149 38.8772 18.4122C38.5682 18.7905 37.2974 20.957 36.4388 20.1661C35.0651 18.8593 39.255 15.2828 40.8005 14.8013C42.2429 14.3199 42.2429 13.5289 41.7278 13.0819C41.1439 12.6348 30.0165 0.942383 29.5014 0.942383C29.467 0.942383 29.4327 0.976772 29.364 1.01116C29.3297 0.976772 29.2953 0.942383 29.261 0.942383C28.7458 0.942383 17.6184 12.6348 17.0689 13.0819C16.5194 13.5289 16.9315 14.3887 17.8245 14.5606C19.0265 14.8013 23.972 18.8593 22.3579 20.1661C21.5336 20.8195 20.778 19.5815 20.2972 18.7905C19.7821 17.9996 17.6527 15.1108 15.0426 16.1081C12.4325 17.1398 0.995972 28.7978 0 29.9327V29.9671V30.0015C0.995972 31.1363 12.3981 42.8631 15.0083 43.826C17.1032 44.5826 19.6103 42.2785 20.1942 41.4532C20.9841 40.3527 21.3275 39.0803 22.3235 39.7681C24.3498 41.1437 18.6487 45.2704 17.4467 45.3392C16.2446 45.4079 16.5194 46.4052 17.0689 46.8523C17.6184 47.2994 28.7458 58.9918 29.261 58.9918C29.2953 58.9918 29.3297 58.9574 29.3983 58.923C29.467 58.9574 29.5014 58.9918 29.5357 58.9918C30.0509 58.9918 41.1783 47.2994 41.7278 46.8523C42.2773 46.4052 42.552 45.6143 41.35 45.3392C40.0793 45.0297 34.6873 41.2124 36.4732 39.7681C37.5722 38.8396 38.5338 41.1093 38.8429 41.4875C39.5985 42.3817 41.8652 44.6514 43.7884 43.826C46.3299 42.7256 57.8007 31.1363 58.7967 30.0015V29.9671C58.7623 29.9671 58.7623 29.9671 58.7623 29.9327ZM31.2186 12.2221C31.2873 8.88635 31.2186 6.37592 31.2186 6.37592C31.8368 5.20667 33.9317 9.09268 34.2065 10.1588C34.4812 11.2248 33.7944 11.9126 35.0307 12.1533C35.8893 12.2909 36.9196 13.357 36.6449 14.5262C36.3701 15.6611 34.2752 14.0104 33.3822 16.5208C32.4549 19.0312 34.2408 20.7507 36.0611 21.4041C37.8813 22.0575 39.9763 21.6792 41.3157 20.7507C42.6551 19.8222 42.5864 17.6557 43.5824 17.7588C45.5056 17.8964 43.9601 20.8883 42.3803 22.2638C40.9379 23.5363 38.9459 23.0204 38.5682 23.6738C38.1904 24.3272 39.049 26.0123 41.0066 26.1842C42.7924 26.3562 44.3379 25.634 44.4066 24.0865C44.441 23.2955 44.7844 22.7453 45.746 22.9172C46.639 23.0548 47.4976 24.396 47.738 25.2557C49.7643 24.8774 51.5158 25.9779 52.6491 27.2159C53.7825 28.4539 52.237 28.1788 52.237 28.1788H41.6248C37.4348 28.1788 36.6792 24.0865 36.3015 23.6738C35.9237 23.2611 34.3782 23.0892 32.661 21.3009C30.7034 19.272 31.1499 15.5235 31.2186 12.2221ZM6.14755 27.1471C7.2809 25.9091 9.03244 24.8087 11.0587 25.1869C11.2991 24.3616 12.1577 22.986 13.0507 22.8485C14.0123 22.7109 14.3557 23.2267 14.3901 24.0177C14.4588 25.5652 16.0042 26.2874 17.7901 26.1155C19.7477 25.9091 20.6063 24.2584 20.2285 23.605C19.8508 22.9516 17.8588 23.4675 16.4164 22.1951C14.8365 20.8195 13.2911 17.862 15.2143 17.69C16.2103 17.6213 16.1416 19.7878 17.481 20.6819C18.8204 21.6104 20.8811 21.9887 22.7356 21.3353C24.5559 20.6819 26.3417 18.9625 25.4145 16.452C24.4872 13.9416 22.3922 15.6267 22.1518 14.4574C21.877 13.3226 22.9074 12.2565 23.7659 12.0846C24.968 11.8438 24.3155 11.156 24.5902 10.09C24.865 9.0239 26.9599 5.1379 27.5781 6.30714C27.5781 6.30714 27.5094 8.81757 27.5781 12.1533C27.6468 15.4891 28.1276 19.2032 26.2044 21.1634C24.4528 22.9516 22.9417 23.1236 22.5296 23.5363C22.1174 24.0177 21.3619 28.11 17.1719 28.11H6.59402C6.59402 28.11 5.0142 28.3508 6.14755 27.1471ZM27.5438 47.7464C27.4751 51.0822 27.5438 53.5926 27.5438 53.5926C26.9256 54.7619 24.8306 50.8759 24.5559 49.8098C24.2811 48.7437 24.968 48.0559 23.7316 47.8152C22.873 47.6776 21.8427 46.6116 22.1174 45.4423C22.3922 44.3075 24.4872 45.9582 25.3801 43.4477C26.3074 40.9373 24.5215 39.2178 22.7013 38.5644C20.8811 37.911 18.7861 38.2893 17.4467 39.2178C16.1073 40.1464 16.176 42.3129 15.18 42.2097C13.2567 42.0722 14.8022 39.0803 16.382 37.7047C17.8245 36.4323 19.8164 36.9481 20.1942 36.2947C20.572 35.6413 19.7134 33.9563 17.7558 33.7843C15.9699 33.6124 14.4244 34.3345 14.3557 35.8821C14.3214 36.673 13.978 37.2233 13.0163 37.0513C12.1234 36.9137 11.2648 35.5726 11.0244 34.7128C8.99809 35.0911 7.24655 33.9906 6.11321 32.7526C4.97986 31.5146 6.52533 31.7897 6.52533 31.7897H17.1719C21.3619 31.7897 22.1174 35.8821 22.4952 36.2947C22.873 36.7074 24.4185 36.8794 26.17 38.6676C28.0933 40.6966 27.6125 44.445 27.5438 47.7464ZM29.3983 35.9165C26.1357 35.9165 23.4912 33.2685 23.4912 30.0015C23.4912 26.7345 26.1357 24.0865 29.3983 24.0865C32.661 24.0865 35.3055 26.7345 35.3055 30.0015C35.3055 33.2685 32.661 35.9165 29.3983 35.9165ZM52.6148 32.8214C51.4814 34.0594 49.7299 35.1599 47.7036 34.7816C47.4632 35.6069 46.6046 36.9825 45.7117 37.1201C44.75 37.2576 44.4066 36.7418 44.3723 35.9508C44.3036 34.4033 42.7581 33.6811 40.9722 33.8531C39.0146 34.0594 38.156 35.7101 38.5338 36.3635C38.9116 37.0169 40.9035 36.5011 42.346 37.7735C43.9258 39.1491 45.4713 42.1066 43.548 42.2785C42.552 42.3473 42.6207 40.1807 41.2813 39.2866C39.9419 38.3581 37.8813 37.9798 36.0267 38.6332C34.2065 39.2866 32.4206 41.0061 33.3479 43.5165C34.2752 46.027 36.3701 44.3419 36.6106 45.5111C36.8853 46.646 35.855 47.712 34.9964 47.884C33.7944 48.1247 34.4469 48.8125 34.1721 49.8786C33.8974 50.9446 31.8024 54.8307 31.1842 53.6614C31.1842 53.6614 31.2529 51.151 31.1842 47.8152C31.1155 44.4794 30.6347 40.7654 32.558 38.8052C34.3095 37.0169 35.8206 36.845 36.1984 36.4323C36.5762 36.0196 37.3318 31.9273 41.5217 31.9273H52.2027C52.2027 31.8929 53.7481 31.6178 52.6148 32.8214Z" fill="#74B5E8"/>
</g>
<defs>
<clipPath id="clip0">
<rect width="148.801" height="30.6806" fill="white" transform="translate(72.1992 17.1837)"/>
</clipPath>
<clipPath id="clip1">
<rect width="58.7623" height="58.0838" fill="white" transform="translate(0 0.942383)"/>
</clipPath>
</defs>
</svg>
