<svg width="48" height="48" viewBox="0 0 48 48" fill="none" xmlns="http://www.w3.org/2000/svg">
<path d="M35.9999 6.74324H25.6769L13.8351 0.824986C13.7297 0.777496 13.6155 0.752937 13.4999 0.752937C13.3843 0.752937 13.27 0.777496 13.1646 0.824986L1.99336 6.40799C1.61877 6.5937 1.30371 6.88066 1.08392 7.23633C0.864129 7.592 0.748401 8.00214 0.749861 8.42024V35.0662C0.749874 35.4498 0.847933 35.827 1.03473 36.1619C1.22152 36.4969 1.49085 36.7786 1.81713 36.9802C2.14341 37.1818 2.51581 37.2967 2.89897 37.3139C3.28213 37.3311 3.66333 37.2501 4.00636 37.0785L13.4999 32.3317L25.1646 38.1637C25.1714 38.1675 25.1789 38.1637 25.1856 38.169C25.2835 38.2169 25.3909 38.2425 25.4999 38.244H35.9999C36.5966 38.244 37.1689 38.0069 37.5909 37.585C38.0128 37.163 38.2499 36.5907 38.2499 35.994V8.99399C38.25 8.69845 38.1918 8.40579 38.0788 8.13272C37.9658 7.85965 37.8001 7.61152 37.5911 7.40251C37.3822 7.1935 37.1341 7.0277 36.8611 6.91458C36.588 6.80146 36.2954 6.74324 35.9999 6.74324ZM12.7499 31.0297L3.33511 35.7367C3.2208 35.7939 3.09378 35.8208 2.96612 35.8151C2.83845 35.8093 2.71437 35.771 2.60566 35.7039C2.49694 35.6367 2.40719 35.5429 2.34492 35.4313C2.28265 35.3197 2.24993 35.194 2.24986 35.0662V22.9567L12.7499 17.7067V31.0297ZM12.7499 16.0297L2.24986 21.2797V8.42024C2.24942 8.28088 2.28804 8.14419 2.36135 8.02567C2.43466 7.90716 2.53972 7.81156 2.66461 7.74974L12.7499 2.70674V16.0297ZM24.7499 36.2797L14.2499 31.0297V17.7067L24.7499 22.9567V36.2797ZM24.7499 21.2797L14.2499 16.0297V2.70674L24.7499 7.95674V21.2797ZM36.7499 35.9932C36.7499 36.1921 36.6708 36.3829 36.5302 36.5236C36.3895 36.6642 36.1988 36.7432 35.9999 36.7432H26.2499V23.2432H36.7499V35.9932ZM36.7499 21.7432H26.2499V8.24324H35.9999C36.1988 8.24324 36.3895 8.32225 36.5302 8.46291C36.6708 8.60356 36.7499 8.79432 36.7499 8.99324V21.7432Z" fill="white"/>
<path d="M35.25 9.75603C32.0685 9.75961 29.0183 11.025 26.7687 13.2747C24.519 15.5244 23.2536 18.5745 23.25 21.756C23.25 27.4493 26.8455 32.7698 30.0172 37.4648C32.325 40.875 34.5 44.1 34.5 46.506C34.5 46.7049 34.579 46.8957 34.7197 47.0364C34.8603 47.177 35.0511 47.256 35.25 47.256C35.4489 47.256 35.6397 47.177 35.7803 47.0364C35.921 46.8957 36 46.7049 36 46.506C36 44.0978 38.175 40.8758 40.4827 37.4648C43.6545 32.7698 47.25 27.45 47.25 21.756C47.2464 18.5745 45.981 15.5244 43.7313 13.2747C41.4817 11.025 38.4315 9.75961 35.25 9.75603ZM35.25 27.756C34.0633 27.756 32.9033 27.4041 31.9166 26.7449C30.9299 26.0856 30.1608 25.1485 29.7067 24.0521C29.2526 22.9558 29.1338 21.7494 29.3653 20.5855C29.5968 19.4216 30.1682 18.3525 31.0074 17.5134C31.8465 16.6743 32.9156 16.1028 34.0795 15.8713C35.2433 15.6398 36.4497 15.7586 37.5461 16.2128C38.6425 16.6669 39.5795 17.4359 40.2388 18.4226C40.8981 19.4093 41.25 20.5693 41.25 21.756C41.2482 23.3468 40.6155 24.8719 39.4907 25.9967C38.3658 27.1215 36.8408 27.7542 35.25 27.756Z" fill="#FBC54C"/>
<path d="M35.25 26.256C37.7353 26.256 39.75 24.2413 39.75 21.756C39.75 19.2707 37.7353 17.256 35.25 17.256C32.7647 17.256 30.75 19.2707 30.75 21.756C30.75 24.2413 32.7647 26.256 35.25 26.256Z" fill="#FBC54C"/>
</svg>
