<svg width="48" height="48" viewBox="0 0 48 48" fill="none" xmlns="http://www.w3.org/2000/svg">
<path d="M33.7501 29.25C33.7501 27.075 33.6226 25.065 33.4426 23.25H26.5876C26.4076 25.065 26.3026 27.075 26.2801 29.25H33.7501Z" fill="#FBC54C"/>
<path d="M25.08 23.25H14.145C13.3326 25.1512 12.8726 27.1843 12.7875 29.25H24.75C24.795 27.21 24.9 25.1775 25.08 23.25Z" fill="#FBC54C"/>
<path d="M34.9576 36.75H45.8926C46.705 34.8488 47.165 32.8157 47.2501 30.75H35.2501C35.2501 32.79 35.1376 34.8225 34.9576 36.75Z" fill="#FBC54C"/>
<path d="M26.76 38.25C27.3525 42.9975 28.4025 46.185 29.355 47.25C29.7972 47.2725 30.2403 47.2725 30.6825 47.25C31.635 46.2 32.685 43.0125 33.2775 38.25H26.76Z" fill="#FBC54C"/>
<path d="M26.25 30.75C26.25 32.925 26.3775 34.935 26.5575 36.75H33.45C33.63 34.935 33.735 32.925 33.7575 30.75H26.25Z" fill="#FBC54C"/>
<path d="M33.2775 21.75C32.685 17.0025 31.635 13.815 30.6825 12.75C30.2403 12.7275 29.7972 12.7275 29.355 12.75C28.4025 13.8 27.3525 16.9875 26.76 21.75H33.2775Z" fill="#FBC54C"/>
<path d="M25.2449 38.25H14.8724C16.1541 40.596 17.9624 42.6128 20.1551 44.1419C22.3479 45.671 24.8655 46.6707 27.5099 47.0625C26.4449 45.1125 25.6874 41.925 25.2449 38.25Z" fill="#FBC54C"/>
<path d="M34.7924 38.25C34.3499 41.925 33.5924 45.1125 32.5424 47.0625C35.1851 46.6713 37.7008 45.6717 39.8912 44.1424C42.0817 42.6131 43.887 40.596 45.1649 38.25H34.7924Z" fill="#FBC54C"/>
<path d="M25.2449 21.75C25.6874 18.075 26.4449 14.8875 27.4949 12.9375C24.8531 13.3315 22.3386 14.3322 20.1486 15.8612C17.9585 17.3902 16.1526 19.4058 14.8724 21.75H25.2449Z" fill="#FBC54C"/>
<path d="M35.1374 25.635C35.2124 26.8275 35.2499 28.035 35.2649 29.25H47.2499C47.1648 27.1843 46.7049 25.1512 45.8924 23.25H37.3799C37.0734 23.2505 36.7701 23.3136 36.4889 23.4355C36.2076 23.5573 35.9541 23.7354 35.7442 23.9587C35.5342 24.1821 35.372 24.446 35.2677 24.7342C35.1634 25.0225 35.119 25.329 35.1374 25.635Z" fill="#FBC54C"/>
<path d="M24.0375 30.75H12.7875C12.8726 32.8157 13.3326 34.8488 14.145 36.75H25.08C24.9225 35.055 24.8175 33.2775 24.7875 31.5C24.7875 31.3011 24.7085 31.1103 24.5679 30.9697C24.4272 30.829 24.2364 30.75 24.0375 30.75Z" fill="#FBC54C"/>
<path d="M34.7925 21.75H45.165C43.8856 19.4022 42.0779 17.3839 39.8847 15.8545C37.6915 14.3251 35.1728 13.3265 32.5275 12.9375C33.5925 14.8875 34.35 18.075 34.7925 21.75Z" fill="#FBC54C"/>
<path d="M32.8125 8.75252C33.3365 8.35145 33.7659 7.84003 34.0703 7.25451C34.3746 6.66899 34.5465 6.0237 34.5736 5.36437C34.6008 4.70503 34.4826 4.04779 34.2275 3.43922C33.9724 2.83064 33.5865 2.28563 33.0973 1.84279C32.608 1.39996 32.0274 1.07014 31.3965 0.876719C30.7656 0.683296 30.0998 0.630998 29.4465 0.723531C28.7931 0.816063 28.1681 1.05116 27.6157 1.41217C27.0633 1.77317 26.597 2.25125 26.25 2.81252C21.9226 1.05002 17.0774 1.05002 12.75 2.81252C12.4001 2.25774 11.9332 1.78613 11.382 1.43074C10.8307 1.07535 10.2084 0.844752 9.55871 0.755104C8.90898 0.665457 8.24751 0.718923 7.62061 0.91176C6.99371 1.1046 6.41654 1.43214 5.92952 1.87146C5.4425 2.31077 5.0574 2.85124 4.80119 3.45501C4.54498 4.05879 4.42385 4.71127 4.44628 5.36678C4.46871 6.02228 4.63417 6.66495 4.93105 7.2498C5.22794 7.83465 5.64909 8.34753 6.165 8.75252C4.57733 9.33348 3.20647 10.3882 2.23796 11.7739C1.26944 13.1596 0.75002 14.8094 0.75 16.5C0.75 16.6989 0.829018 16.8897 0.96967 17.0303C1.11032 17.171 1.30109 17.25 1.5 17.25H1.6575C1.56078 17.9963 1.50819 18.7476 1.5 19.5C1.50764 22.8456 2.44522 26.1232 4.20801 28.9667C5.97081 31.8102 8.48941 34.1077 11.4825 35.6025C11.3287 36.2233 11.2506 36.8604 11.25 37.5C11.25 37.6989 11.329 37.8897 11.4697 38.0303C11.6103 38.171 11.8011 38.25 12 38.25H27C27.1989 38.25 27.3897 38.171 27.5303 38.0303C27.671 37.8897 27.75 37.6989 27.75 37.5C27.7494 36.8604 27.6713 36.2233 27.5175 35.6025C30.5106 34.1077 33.0292 31.8102 34.792 28.9667C36.5548 26.1232 37.4924 22.8456 37.5 19.5C37.4918 18.7476 37.4392 17.9963 37.3425 17.25H37.5C37.6989 17.25 37.8897 17.171 38.0303 17.0303C38.171 16.8897 38.25 16.6989 38.25 16.5C38.2483 14.8067 37.7256 13.1549 36.7528 11.7689C35.7801 10.3829 34.4044 9.32978 32.8125 8.75252ZM30 2.25002C30.5933 2.25002 31.1734 2.42597 31.6667 2.75561C32.1601 3.08526 32.5446 3.55379 32.7716 4.10197C32.9987 4.65015 33.0581 5.25335 32.9424 5.83529C32.8266 6.41723 32.5409 6.95178 32.1213 7.37134C31.7018 7.7909 31.1672 8.07662 30.5853 8.19238C30.0033 8.30813 29.4001 8.24872 28.8519 8.02166C28.3038 7.7946 27.8352 7.41008 27.5056 6.91673C27.1759 6.42338 27 5.84336 27 5.25002C27 4.45437 27.3161 3.69131 27.8787 3.1287C28.4413 2.56609 29.2044 2.25002 30 2.25002ZM6 5.25002C6 4.65668 6.17595 4.07666 6.50559 3.58331C6.83524 3.08996 7.30377 2.70545 7.85195 2.47838C8.40013 2.25132 9.00333 2.19191 9.58527 2.30767C10.1672 2.42342 10.7018 2.70914 11.1213 3.1287C11.5409 3.54826 11.8266 4.08281 11.9424 4.66475C12.0581 5.24669 11.9987 5.84989 11.7716 6.39807C11.5446 6.94625 11.1601 7.41478 10.6667 7.74443C10.1734 8.07407 9.59334 8.25002 9 8.25002C8.20435 8.25002 7.44129 7.93395 6.87868 7.37134C6.31607 6.80873 6 6.04567 6 5.25002ZM9 9.75002C10.6598 9.75081 12.2611 10.3631 13.498 11.4699C14.7349 12.5768 15.5206 14.1005 15.705 15.75H2.295C2.47942 14.1005 3.26513 12.5768 4.50201 11.4699C5.73889 10.3631 7.3402 9.75081 9 9.75002ZM12.795 36.75C12.9858 35.1056 13.7743 33.5886 15.0106 32.4876C16.2468 31.3865 17.8445 30.7781 19.5 30.7781C21.1555 30.7781 22.7532 31.3865 23.9894 32.4876C25.2257 33.5886 26.0142 35.1056 26.205 36.75H12.795ZM16.5 26.25C16.5 25.6567 16.6759 25.0767 17.0056 24.5833C17.3352 24.09 17.8038 23.7054 18.3519 23.4784C18.9001 23.2513 19.5033 23.1919 20.0853 23.3077C20.6672 23.4234 21.2018 23.7091 21.6213 24.1287C22.0409 24.5483 22.3266 25.0828 22.4424 25.6647C22.5581 26.2467 22.4987 26.8499 22.2716 27.3981C22.0446 27.9462 21.6601 28.4148 21.1667 28.7444C20.6734 29.0741 20.0933 29.25 19.5 29.25C18.7044 29.25 17.9413 28.9339 17.3787 28.3713C16.8161 27.8087 16.5 27.0457 16.5 26.25ZM27 34.1625C26.5498 33.1472 25.8993 32.2333 25.0873 31.4755C24.2754 30.7178 23.3189 30.1317 22.275 29.7525C23.0028 29.1698 23.5316 28.3755 23.7884 27.4792C24.0452 26.5829 24.0173 25.629 23.7085 24.7493C23.3998 23.8696 22.8254 23.1076 22.0647 22.5684C21.3041 22.0293 20.3948 21.7397 19.4625 21.7397C18.5302 21.7397 17.6209 22.0293 16.8603 22.5684C16.0996 23.1076 15.5252 23.8696 15.2165 24.7493C14.9077 25.629 14.8798 26.5829 15.1366 27.4792C15.3934 28.3755 15.9222 29.1698 16.65 29.7525C15.6199 30.1403 14.6779 30.7302 13.8793 31.4875C13.0807 32.2449 12.4417 33.1544 12 34.1625C8.93677 32.6302 6.43476 30.1709 4.84991 27.1345C3.26506 24.0981 2.67809 20.6393 3.1725 17.25H16.5C16.6989 17.25 16.8897 17.171 17.0303 17.0303C17.171 16.8897 17.25 16.6989 17.25 16.5C17.2483 14.8067 16.7256 13.1549 15.7528 11.7689C14.7801 10.3829 13.4044 9.32978 11.8125 8.75252C12.3377 8.332 12.762 7.79906 13.054 7.19291C13.3461 6.58677 13.4985 5.92285 13.5 5.25002C13.4972 4.89094 13.4518 4.53345 13.365 4.18502C17.3049 2.61772 21.6951 2.61772 25.635 4.18502C25.5482 4.53345 25.5028 4.89094 25.5 5.25002C25.5015 5.92285 25.6539 6.58677 25.946 7.19291C26.238 7.79906 26.6623 8.332 27.1875 8.75252C25.5956 9.32978 24.2199 10.3829 23.2472 11.7689C22.2744 13.1549 21.7517 14.8067 21.75 16.5C21.75 16.6989 21.829 16.8897 21.9697 17.0303C22.1103 17.171 22.3011 17.25 22.5 17.25H35.8275C36.3251 20.6351 35.7436 24.0909 34.1658 27.1268C32.5879 30.1628 30.0938 32.6245 27.0375 34.1625H27ZM23.295 15.75C23.4858 14.1056 24.2743 12.5886 25.5106 11.4876C26.7468 10.3865 28.3445 9.77814 30 9.77814C31.6555 9.77814 33.2532 10.3865 34.4894 11.4876C35.7257 12.5886 36.5142 14.1056 36.705 15.75H23.295Z" fill="white"/>
</svg>
