<svg width="48" height="48" viewBox="0 0 48 48" fill="none" xmlns="http://www.w3.org/2000/svg">
<path d="M31.5 14.625C27.3228 14.625 23.3168 16.2844 20.3631 19.2381C17.4094 22.1918 15.75 26.1978 15.75 30.375C15.75 34.5522 17.4094 38.5582 20.3631 41.5119C23.3168 44.4656 27.3228 46.125 31.5 46.125H46.5C46.6989 46.125 46.8897 46.046 47.0303 45.9053C47.171 45.7647 47.25 45.5739 47.25 45.375V30.375C47.2452 26.1993 45.5843 22.196 42.6317 19.2433C39.679 16.2907 35.6757 14.6298 31.5 14.625ZM26.25 22.875H36.75C36.9489 22.875 37.1397 22.954 37.2803 23.0947C37.421 23.2353 37.5 23.4261 37.5 23.625C37.5 23.8239 37.421 24.0147 37.2803 24.1553C37.1397 24.296 36.9489 24.375 36.75 24.375H26.25C26.0511 24.375 25.8603 24.296 25.7197 24.1553C25.579 24.0147 25.5 23.8239 25.5 23.625C25.5 23.4261 25.579 23.2353 25.7197 23.0947C25.8603 22.954 26.0511 22.875 26.25 22.875ZM40.5 37.875H34.5C34.3011 37.875 34.1103 37.796 33.9697 37.6553C33.829 37.5147 33.75 37.3239 33.75 37.125C33.75 36.9261 33.829 36.7353 33.9697 36.5947C34.1103 36.454 34.3011 36.375 34.5 36.375H40.5C40.6989 36.375 40.8897 36.454 41.0303 36.5947C41.171 36.7353 41.25 36.9261 41.25 37.125C41.25 37.3239 41.171 37.5147 41.0303 37.6553C40.8897 37.796 40.6989 37.875 40.5 37.875ZM40.5 33.375H22.5C22.3011 33.375 22.1103 33.296 21.9697 33.1553C21.829 33.0147 21.75 32.8239 21.75 32.625C21.75 32.4261 21.829 32.2353 21.9697 32.0947C22.1103 31.954 22.3011 31.875 22.5 31.875H40.5C40.6989 31.875 40.8897 31.954 41.0303 32.0947C41.171 32.2353 41.25 32.4261 41.25 32.625C41.25 32.8239 41.171 33.0147 41.0303 33.1553C40.8897 33.296 40.6989 33.375 40.5 33.375ZM40.5 28.875H22.5C22.3011 28.875 22.1103 28.796 21.9697 28.6553C21.829 28.5147 21.75 28.3239 21.75 28.125C21.75 27.9261 21.829 27.7353 21.9697 27.5947C22.1103 27.454 22.3011 27.375 22.5 27.375H40.5C40.6989 27.375 40.8897 27.454 41.0303 27.5947C41.171 27.7353 41.25 27.9261 41.25 28.125C41.25 28.3239 41.171 28.5147 41.0303 28.6553C40.8897 28.796 40.6989 28.875 40.5 28.875Z" fill="#FBC54C"/>
<path d="M16.5 1.875H1.5C1.30109 1.875 1.11032 1.95402 0.96967 2.09467C0.829018 2.23532 0.75 2.42609 0.75 2.625V17.625C0.75 20.7401 1.67372 23.7852 3.40435 26.3752C5.13499 28.9653 7.5948 30.984 10.4727 32.1761C13.3507 33.3682 16.5175 33.6801 19.5727 33.0724C22.6279 32.4647 25.4343 30.9646 27.6369 28.7619C29.8396 26.5593 31.3397 23.7529 31.9474 20.6977C32.5551 17.6425 32.2432 14.4757 31.0511 11.5977C29.859 8.7198 27.8403 6.25999 25.2502 4.52935C22.6602 2.79872 19.6151 1.875 16.5 1.875ZM16.5 31.875C12.7219 31.8708 9.09982 30.3682 6.42833 27.6967C3.75684 25.0252 2.25417 21.4031 2.25 17.625V3.375H16.5C20.2793 3.375 23.9039 4.87633 26.5763 7.54873C29.2487 10.2211 30.75 13.8457 30.75 17.625C30.75 21.4043 29.2487 25.0289 26.5763 27.7013C23.9039 30.3737 20.2793 31.875 16.5 31.875Z" fill="white"/>
<path d="M25.5 14.625H7.5C7.30109 14.625 7.11032 14.704 6.96967 14.8447C6.82902 14.9853 6.75 15.1761 6.75 15.375C6.75 15.5739 6.82902 15.7647 6.96967 15.9053C7.11032 16.046 7.30109 16.125 7.5 16.125H25.5C25.6989 16.125 25.8897 16.046 26.0303 15.9053C26.171 15.7647 26.25 15.5739 26.25 15.375C26.25 15.1761 26.171 14.9853 26.0303 14.8447C25.8897 14.704 25.6989 14.625 25.5 14.625Z" fill="white"/>
<path d="M7.5 11.625H13.5C13.6989 11.625 13.8897 11.546 14.0303 11.4053C14.171 11.2647 14.25 11.0739 14.25 10.875C14.25 10.6761 14.171 10.4853 14.0303 10.3447C13.8897 10.204 13.6989 10.125 13.5 10.125H7.5C7.30109 10.125 7.11032 10.204 6.96967 10.3447C6.82902 10.4853 6.75 10.6761 6.75 10.875C6.75 11.0739 6.82902 11.2647 6.96967 11.4053C7.11032 11.546 7.30109 11.625 7.5 11.625Z" fill="white"/>
<path d="M25.5 19.125H7.5C7.30109 19.125 7.11032 19.204 6.96967 19.3447C6.82902 19.4853 6.75 19.6761 6.75 19.875C6.75 20.0739 6.82902 20.2647 6.96967 20.4053C7.11032 20.546 7.30109 20.625 7.5 20.625H25.5C25.6989 20.625 25.8897 20.546 26.0303 20.4053C26.171 20.2647 26.25 20.0739 26.25 19.875C26.25 19.6761 26.171 19.4853 26.0303 19.3447C25.8897 19.204 25.6989 19.125 25.5 19.125Z" fill="white"/>
<path d="M21.75 23.625H11.25C11.0511 23.625 10.8603 23.704 10.7197 23.8447C10.579 23.9853 10.5 24.1761 10.5 24.375C10.5 24.5739 10.579 24.7647 10.7197 24.9053C10.8603 25.046 11.0511 25.125 11.25 25.125H21.75C21.9489 25.125 22.1397 25.046 22.2803 24.9053C22.421 24.7647 22.5 24.5739 22.5 24.375C22.5 24.1761 22.421 23.9853 22.2803 23.8447C22.1397 23.704 21.9489 23.625 21.75 23.625Z" fill="white"/>
</svg>
