<svg width="32" height="32" viewBox="0 0 32 32" fill="none" xmlns="http://www.w3.org/2000/svg">
<g clip-path="url(#clip0)">
<path fill-rule="evenodd" clip-rule="evenodd" d="M30 16C30 12.287 28.525 8.72601 25.8995 6.1005C23.274 3.475 19.713 2 16 2C12.287 2 8.72601 3.475 6.1005 6.10051C3.47499 8.72601 2 12.287 2 16C2 19.713 3.475 23.274 6.1005 25.8995C8.72601 28.525 12.287 30 16 30C19.713 30 23.274 28.525 25.8995 25.8995C28.525 23.274 30 19.713 30 16ZM32 16C32 11.7565 30.3143 7.68687 27.3137 4.68629C24.3131 1.68571 20.2435 -8.8487e-07 16 -6.99382e-07C11.7565 -5.13895e-07 7.68687 1.68571 4.68629 4.68629C1.68571 7.68687 -8.8487e-07 11.7565 -6.99382e-07 16C-5.13895e-07 20.2435 1.68571 24.3131 4.68629 27.3137C7.68687 30.3143 11.7565 32 16 32C20.2435 32 24.3131 30.3143 27.3137 27.3137C30.3143 24.3131 32 20.2435 32 16Z" fill="#5958A3"/>
<path fill-rule="evenodd" clip-rule="evenodd" d="M15.2919 22.708C15.1988 22.6151 15.1249 22.5047 15.0745 22.3833C15.0241 22.2618 14.9981 22.1315 14.9981 22C14.9981 21.8684 15.0241 21.7382 15.0745 21.6167C15.1249 21.4952 15.1988 21.3849 15.2919 21.292L20.5859 16L15.2919 10.708C15.1041 10.5202 14.9986 10.2655 14.9986 9.99998C14.9986 9.73443 15.1041 9.47976 15.2919 9.29198C15.4797 9.10421 15.7343 8.99872 15.9999 8.99872C16.2654 8.99872 16.5201 9.10421 16.7079 9.29198L22.7079 15.292C22.801 15.3849 22.8749 15.4952 22.9253 15.6167C22.9757 15.7382 23.0017 15.8684 23.0017 16C23.0017 16.1315 22.9757 16.2618 22.9253 16.3833C22.8749 16.5047 22.801 16.6151 22.7079 16.708L16.7079 22.708C16.615 22.8011 16.5047 22.875 16.3832 22.9254C16.2617 22.9758 16.1314 23.0018 15.9999 23.0018C15.8684 23.0018 15.7381 22.9758 15.6166 22.9254C15.4951 22.875 15.3848 22.8011 15.2919 22.708Z" fill="#5958A3"/>
<path fill-rule="evenodd" clip-rule="evenodd" d="M9 16C9 15.7348 9.10536 15.4804 9.29289 15.2929C9.48043 15.1054 9.73478 15 10 15L20 15C20.2652 15 20.5196 15.1054 20.7071 15.2929C20.8946 15.4804 21 15.7348 21 16C21 16.2652 20.8946 16.5196 20.7071 16.7071C20.5196 16.8946 20.2652 17 20 17L10 17C9.73478 17 9.48043 16.8946 9.29289 16.7071C9.10536 16.5196 9 16.2652 9 16Z" fill="#5958A3"/>
</g>
<defs>
<clipPath id="clip0">
<rect width="32" height="32" fill="white" transform="translate(0 32) rotate(-90)"/>
</clipPath>
</defs>
</svg>
