<svg width="48" height="48" viewBox="0 0 48 48" fill="none" xmlns="http://www.w3.org/2000/svg">
<path d="M29.25 38.25C29.8467 38.25 30.419 38.0129 30.841 37.591C31.2629 37.169 31.5 36.5967 31.5 36V10.5C31.4813 10.3869 31.4562 10.275 31.425 10.1648L26.925 1.16475C26.8594 1.04199 26.7622 0.93889 26.6436 0.866011C26.525 0.793132 26.3892 0.753094 26.25 0.75H5.25C4.65326 0.75 4.08097 0.987053 3.65901 1.40901C3.23705 1.83097 3 2.40326 3 3V36C3 36.5967 3.23705 37.169 3.65901 37.591C4.08097 38.0129 4.65326 38.25 5.25 38.25H29.25ZM25.263 5.151L26.25 3.177L28.8158 8.30925L25.5158 6.11025C25.364 6.00855 25.2547 5.85499 25.2081 5.67838C25.1616 5.50177 25.1811 5.31425 25.263 5.151ZM4.5 36V3C4.5 2.80109 4.57902 2.61032 4.71967 2.46967C4.86032 2.32902 5.05109 2.25 5.25 2.25H25.0365L23.925 4.4805C23.6798 4.97109 23.6222 5.53437 23.763 6.06445C23.9039 6.59452 24.2336 7.05489 24.69 7.359L30 10.9012V36C30 36.1989 29.921 36.3897 29.7803 36.5303C29.6397 36.671 29.4489 36.75 29.25 36.75H5.25C5.05109 36.75 4.86032 36.671 4.71967 36.5303C4.57902 36.3897 4.5 36.1989 4.5 36ZM9.75 8.25C9.75 8.05109 9.82902 7.86032 9.96967 7.71967C10.1103 7.57902 10.3011 7.5 10.5 7.5H17.25C17.4489 7.5 17.6397 7.57902 17.7803 7.71967C17.921 7.86032 18 8.05109 18 8.25C18 8.44891 17.921 8.63968 17.7803 8.78033C17.6397 8.92098 17.4489 9 17.25 9H10.5C10.3011 9 10.1103 8.92098 9.96967 8.78033C9.82902 8.63968 9.75 8.44891 9.75 8.25ZM9.75 11.25C9.75 11.0511 9.82902 10.8603 9.96967 10.7197C10.1103 10.579 10.3011 10.5 10.5 10.5H17.25C17.4489 10.5 17.6397 10.579 17.7803 10.7197C17.921 10.8603 18 11.0511 18 11.25C18 11.4489 17.921 11.6397 17.7803 11.7803C17.6397 11.921 17.4489 12 17.25 12H10.5C10.3011 12 10.1103 11.921 9.96967 11.7803C9.82902 11.6397 9.75 11.4489 9.75 11.25ZM9.75 17.25C9.75 17.0511 9.82902 16.8603 9.96967 16.7197C10.1103 16.579 10.3011 16.5 10.5 16.5H24C24.1989 16.5 24.3897 16.579 24.5303 16.7197C24.671 16.8603 24.75 17.0511 24.75 17.25C24.75 17.4489 24.671 17.6397 24.5303 17.7803C24.3897 17.921 24.1989 18 24 18H10.5C10.3011 18 10.1103 17.921 9.96967 17.7803C9.82902 17.6397 9.75 17.4489 9.75 17.25ZM9.75 21.75C9.75 21.5511 9.82902 21.3603 9.96967 21.2197C10.1103 21.079 10.3011 21 10.5 21H24C24.1989 21 24.3897 21.079 24.5303 21.2197C24.671 21.3603 24.75 21.5511 24.75 21.75C24.75 21.9489 24.671 22.1397 24.5303 22.2803C24.3897 22.421 24.1989 22.5 24 22.5H10.5C10.3011 22.5 10.1103 22.421 9.96967 22.2803C9.82902 22.1397 9.75 21.9489 9.75 21.75ZM9.75 26.25C9.75 26.0511 9.82902 25.8603 9.96967 25.7197C10.1103 25.579 10.3011 25.5 10.5 25.5H24C24.1989 25.5 24.3897 25.579 24.5303 25.7197C24.671 25.8603 24.75 26.0511 24.75 26.25C24.75 26.4489 24.671 26.6397 24.5303 26.7803C24.3897 26.921 24.1989 27 24 27H10.5C10.3011 27 10.1103 26.921 9.96967 26.7803C9.82902 26.6397 9.75 26.4489 9.75 26.25ZM9.75 30.75C9.75 30.5511 9.82902 30.3603 9.96967 30.2197C10.1103 30.079 10.3011 30 10.5 30H24C24.1989 30 24.3897 30.079 24.5303 30.2197C24.671 30.3603 24.75 30.5511 24.75 30.75C24.75 30.9489 24.671 31.1397 24.5303 31.2803C24.3897 31.421 24.1989 31.5 24 31.5H10.5C10.3011 31.5 10.1103 31.421 9.96967 31.2803C9.82902 31.1397 9.75 30.9489 9.75 30.75Z" fill="white"/>
<path d="M42.75 23.25H23.25C22.6533 23.25 22.081 23.4871 21.659 23.909C21.2371 24.331 21 24.9033 21 25.5V45C21 45.5967 21.2371 46.169 21.659 46.591C22.081 47.0129 22.6533 47.25 23.25 47.25H42.75C43.3467 47.25 43.919 47.0129 44.341 46.591C44.7629 46.169 45 45.5967 45 45V25.5C45 24.9033 44.7629 24.331 44.341 23.909C43.919 23.4871 43.3467 23.25 42.75 23.25ZM38.85 31.2L32.1 40.2C32.0355 40.2859 31.9533 40.357 31.859 40.4085C31.7646 40.4599 31.6604 40.4904 31.5532 40.498C31.446 40.5056 31.3385 40.4901 31.2378 40.4526C31.1371 40.415 31.0457 40.3562 30.9697 40.2803L26.4697 35.7803C26.3331 35.6388 26.2575 35.4493 26.2592 35.2527C26.261 35.0561 26.3398 34.8679 26.4789 34.7289C26.6179 34.5898 26.8061 34.511 27.0027 34.5092C27.1993 34.5075 27.3888 34.5831 27.5303 34.7197L31.419 38.6085L37.65 30.3C37.7091 30.2212 37.7831 30.1548 37.8679 30.1046C37.9526 30.0545 38.0464 30.0215 38.1439 30.0075C38.2414 29.9936 38.3407 29.999 38.4361 30.0235C38.5315 30.0479 38.6212 30.0909 38.7 30.15C38.7788 30.2091 38.8452 30.2831 38.8954 30.3679C38.9455 30.4526 38.9785 30.5464 38.9925 30.6439C39.0064 30.7414 39.001 30.8407 38.9765 30.9361C38.9521 31.0315 38.9091 31.1212 38.85 31.2Z" fill="#FBC54C"/>
</svg>
