<svg width="24" height="24" viewBox="0 0 24 24" fill="none" xmlns="http://www.w3.org/2000/svg">
<circle cx="12" cy="12" r="11.5" stroke="#D6D6D6"/>
<path d="M8.68638 17H6.19844V8.98829H8.68638V17ZM7.44091 7.89543C6.64545 7.89543 6 7.23629 6 6.44086C6 6.05872 6.15181 5.69223 6.42203 5.42202C6.69226 5.1518 7.05876 5 7.44091 5C7.82306 5 8.18956 5.1518 8.45978 5.42202C8.73001 5.69223 8.88182 6.05872 8.88182 6.44086C8.88182 7.23629 8.23637 7.89543 7.44091 7.89543ZM17.9979 17H15.5155V13.1C15.5155 12.1704 15.4966 10.9786 14.222 10.9786C12.9285 10.9786 12.7301 11.9883 12.7301 13.0331V17H10.2447V8.98829H12.6307V10.0811H12.6654C12.9975 9.45157 13.8089 8.78729 15.0192 8.78729C17.5371 8.78729 18 10.4454 18 12.599V17H17.9979Z" fill="#006699"/>
</svg>
