<svg width="24" height="24" viewBox="0 0 24 24" fill="none" xmlns="http://www.w3.org/2000/svg">
<path d="M6 7.35211V16.5352L13.0631 18V6L6 7.35211ZM9.55842 14.0793C7.31309 13.9361 7.54434 9.93309 9.61084 9.90129C11.8246 10.046 11.6075 14.0474 9.55842 14.0793ZM9.59079 10.6851C8.40789 10.7663 8.46085 13.2727 9.57255 13.2928C10.7504 13.2178 10.6812 10.7045 9.59079 10.6851ZM14.2666 12.2815C14.3732 12.359 14.5017 12.2815 14.5017 12.2815C14.3736 12.359 18 9.97657 18 9.97657V14.2907C18 14.7603 17.696 14.9573 17.3543 14.9573H13.5092L13.5095 11.7672L14.2666 12.2815ZM13.5096 8.54423V10.8915L14.339 11.408C14.3609 11.4143 14.4083 11.4148 14.4301 11.408L17.9995 9.02782C17.9995 8.74615 17.7338 8.54423 17.5839 8.54423H13.5096Z" fill="#2196F3"/>
<circle cx="12" cy="12" r="11.5" stroke="#D6D6D6"/>
</svg>
