<svg width="24" height="24" viewBox="0 0 24 24" fill="none" xmlns="http://www.w3.org/2000/svg">
<circle cx="12" cy="12" r="11.5" stroke="#D6D6D6"/>
<path d="M18.5 7.97344C18.0219 8.17969 17.5015 8.32813 16.9656 8.38594C17.522 8.05538 17.9387 7.53313 18.1375 6.91719C17.6153 7.2278 17.0433 7.44561 16.4469 7.56094C16.1976 7.29442 15.896 7.0821 15.5611 6.93721C15.2261 6.79231 14.8649 6.71795 14.5 6.71876C13.0234 6.71876 11.8359 7.91563 11.8359 9.38438C11.8359 9.59063 11.8609 9.79688 11.9015 9.99532C9.69061 9.87969 7.71873 8.82344 6.4078 7.20626C6.16893 7.61425 6.04375 8.0788 6.0453 8.55157C6.0453 9.47657 6.51561 10.2922 7.2328 10.7719C6.81015 10.7552 6.39739 10.6391 6.02811 10.4328V10.4656C6.02811 11.7609 6.94373 12.8344 8.16405 13.0813C7.93492 13.1408 7.69921 13.1712 7.46248 13.1719C7.28905 13.1719 7.12498 13.1547 6.95936 13.1313C7.29686 14.1875 8.27967 14.9547 9.44998 14.9797C8.53436 15.6969 7.38748 16.1188 6.14217 16.1188C5.91873 16.1188 5.71248 16.1109 5.49842 16.0859C6.67967 16.8438 8.08123 17.2813 9.59061 17.2813C14.4906 17.2813 17.1719 13.2219 17.1719 9.69844C17.1719 9.58282 17.1719 9.46719 17.164 9.35157C17.6828 8.97188 18.1375 8.50157 18.5 7.97344Z" fill="#03A9F4"/>
</svg>
