<svg width="24" height="24" viewBox="0 0 24 24" fill="none" xmlns="http://www.w3.org/2000/svg">
<path d="M11.0368 8.40812L9.39745 12.8822L7.77808 8.40812H5L8.06031 16.1934L6.94497 19H9.66811L13.7428 8.40812H11.0368ZM14.0846 12.6516C13.7517 12.6516 13.4262 12.7583 13.1493 12.9582C12.8724 13.1581 12.6567 13.4422 12.5292 13.7747C12.4018 14.1071 12.3685 14.473 12.4334 14.8259C12.4984 15.1788 12.6587 15.503 12.8942 15.7574C13.1296 16.0119 13.4296 16.1852 13.7562 16.2554C14.0828 16.3256 14.4213 16.2895 14.7289 16.1518C15.0365 16.0141 15.2995 15.7809 15.4845 15.4817C15.6695 15.1825 15.7682 14.8308 15.7682 14.4709C15.7682 14.232 15.7247 13.9954 15.6401 13.7747C15.5554 13.554 15.4314 13.3534 15.2751 13.1844C15.1188 13.0155 14.9332 12.8815 14.7289 12.7901C14.5247 12.6986 14.3057 12.6516 14.0846 12.6516ZM15.9805 5L13.2912 11.9834H16.3214L19 5H15.9805Z" fill="#5F01D1"/>
<circle cx="12" cy="12" r="11.5" stroke="#D6D6D6"/>
</svg>
