<svg width="32" height="32" viewBox="0 0 32 32" fill="none" xmlns="http://www.w3.org/2000/svg">
<g clip-path="url(#clip0)">
<path fill-rule="evenodd" clip-rule="evenodd" d="M2 16C2 12.287 3.475 8.72601 6.10051 6.1005C8.72602 3.475 12.287 2 16 2C19.713 2 23.274 3.475 25.8995 6.10051C28.525 8.72601 30 12.287 30 16C30 19.713 28.525 23.274 25.8995 25.8995C23.274 28.525 19.713 30 16 30C12.287 30 8.72602 28.525 6.10051 25.8995C3.475 23.274 2 19.713 2 16V16ZM6.99382e-07 16C8.8487e-07 11.7565 1.68571 7.68687 4.68629 4.68629C7.68687 1.68571 11.7565 -8.8487e-07 16 -6.99382e-07C20.2435 -5.13895e-07 24.3131 1.68571 27.3137 4.68629C30.3143 7.68687 32 11.7565 32 16C32 20.2435 30.3143 24.3131 27.3137 27.3137C24.3131 30.3143 20.2435 32 16 32C11.7565 32 7.68687 30.3143 4.68629 27.3137C1.68571 24.3131 5.13895e-07 20.2435 6.99382e-07 16V16Z" fill="#5958A3"/>
<path fill-rule="evenodd" clip-rule="evenodd" d="M16.7081 22.708C16.8012 22.6151 16.8751 22.5047 16.9255 22.3833C16.9759 22.2618 17.0019 22.1315 17.0019 22C17.0019 21.8684 16.9759 21.7382 16.9255 21.6167C16.8751 21.4952 16.8012 21.3849 16.7081 21.292L11.4141 16L16.7081 10.708C16.8959 10.5202 17.0014 10.2655 17.0014 9.99998C17.0014 9.73443 16.8959 9.47976 16.7081 9.29198C16.5203 9.10421 16.2657 8.99872 16.0001 8.99872C15.7346 8.99872 15.4799 9.10421 15.2921 9.29198L9.2921 15.292C9.19898 15.3849 9.12509 15.4952 9.07468 15.6167C9.02427 15.7382 8.99832 15.8684 8.99832 16C8.99832 16.1315 9.02427 16.2618 9.07468 16.3833C9.12509 16.5047 9.19898 16.6151 9.2921 16.708L15.2921 22.708C15.385 22.8011 15.4953 22.875 15.6168 22.9254C15.7383 22.9758 15.8686 23.0018 16.0001 23.0018C16.1316 23.0018 16.2619 22.9758 16.3834 22.9254C16.5049 22.875 16.6152 22.8011 16.7081 22.708V22.708Z" fill="#5958A3"/>
<path fill-rule="evenodd" clip-rule="evenodd" d="M23 16C23 15.7348 22.8946 15.4804 22.7071 15.2929C22.5196 15.1054 22.2652 15 22 15L12 15C11.7348 15 11.4804 15.1054 11.2929 15.2929C11.1054 15.4804 11 15.7348 11 16C11 16.2652 11.1054 16.5196 11.2929 16.7071C11.4804 16.8946 11.7348 17 12 17L22 17C22.2652 17 22.5196 16.8946 22.7071 16.7071C22.8946 16.5196 23 16.2652 23 16V16Z" fill="#5958A3"/>
</g>
<defs>
<clipPath id="clip0">
<rect width="32" height="32" fill="white" transform="matrix(4.37114e-08 -1 -1 -4.37114e-08 32 32)"/>
</clipPath>
</defs>
</svg>
