<svg width="48" height="48" viewBox="0 0 48 48" fill="none" xmlns="http://www.w3.org/2000/svg">
<path d="M30 0.75H3C2.40326 0.75 1.83097 0.987053 1.40901 1.40901C0.987053 1.83097 0.75 2.40326 0.75 3V30C0.75 30.5967 0.987053 31.169 1.40901 31.591C1.83097 32.0129 2.40326 32.25 3 32.25H23.3783C23.674 32.2509 23.9669 32.1932 24.2401 32.08C24.5133 31.9668 24.7613 31.8005 24.9697 31.5907L31.5907 24.9697C31.8004 24.7614 31.9667 24.5135 32.0798 24.2405C32.193 23.9674 32.2508 23.6746 32.25 23.379V3C32.25 2.40326 32.0129 1.83097 31.591 1.40901C31.169 0.987053 30.5967 0.75 30 0.75ZM2.25 30V3C2.25 2.80109 2.32902 2.61032 2.46967 2.46967C2.61032 2.32902 2.80109 2.25 3 2.25H30C30.1989 2.25 30.3897 2.32902 30.5303 2.46967C30.671 2.61032 30.75 2.80109 30.75 3V23.25H25.5C24.9033 23.25 24.331 23.4871 23.909 23.909C23.4871 24.331 23.25 24.9033 23.25 25.5V30.75H3C2.80109 30.75 2.61032 30.671 2.46967 30.5303C2.32902 30.3897 2.25 30.1989 2.25 30ZM24.75 29.6895V25.5C24.75 25.3011 24.829 25.1103 24.9697 24.9697C25.1103 24.829 25.3011 24.75 25.5 24.75H29.6895L24.75 29.6895Z" fill="white"/>
<path d="M20.7607 21.39C21.4888 21.3802 22.1968 21.1494 22.7909 20.7284C23.385 20.3073 23.8372 19.7157 24.0877 19.032C24.7847 17.4977 24.9327 15.7703 24.5069 14.1397V14.1345L24.5024 14.1157C24.1867 13.0694 23.6651 12.0966 22.9682 11.2547C22.2713 10.4128 21.4131 9.7186 20.4442 9.21297C19.3445 8.61877 18.1243 8.28169 16.8755 8.22711C15.6267 8.17253 14.3818 8.40185 13.2345 8.89784C12.0871 9.39382 11.0671 10.1435 10.2513 11.0906C9.43554 12.0377 8.84514 13.1574 8.52455 14.3656C8.20397 15.5737 8.16154 16.8389 8.40047 18.0658C8.63939 19.2928 9.15345 20.4495 9.90397 21.4491C10.6545 22.4487 11.6219 23.2651 12.7335 23.8368C13.845 24.4086 15.0718 24.7208 16.3214 24.75H16.3424C16.5413 24.7527 16.7332 24.6762 16.8757 24.5375C17.0183 24.3987 17.0999 24.209 17.1026 24.0101C17.1052 23.8112 17.0288 23.6193 16.89 23.4768C16.7513 23.3342 16.5616 23.2527 16.3627 23.25C14.8975 23.2067 13.4851 22.6934 12.3341 21.7858C11.183 20.8783 10.3543 19.6246 9.97043 18.21C9.53061 16.5331 9.75443 14.7512 10.5953 13.2351C11.4361 11.7191 12.8293 10.5857 14.4847 10.071C15.3481 9.79507 16.258 9.69449 17.1608 9.77511C18.0637 9.85574 18.9413 10.1159 19.7422 10.5405C20.5323 10.9515 21.2326 11.5159 21.802 12.2008C22.3715 12.8856 22.7987 13.6771 23.0587 14.529C23.3973 15.8464 23.269 17.2404 22.6957 18.474C22.5528 18.8769 22.2918 19.2274 21.9468 19.4798C21.6018 19.7323 21.1887 19.8749 20.7614 19.8892C20.4991 19.8544 20.2598 19.7214 20.0916 19.5171C19.9235 19.3128 19.8391 19.0523 19.8554 18.7882L19.8884 12.2085C19.8889 12.1097 19.8699 12.0117 19.8324 11.9203C19.7949 11.8289 19.7398 11.7458 19.6701 11.6757C19.6004 11.6057 19.5175 11.5501 19.4263 11.5122C19.3351 11.4742 19.2372 11.4547 19.1384 11.4547C18.9395 11.4547 18.7488 11.5337 18.6081 11.6744C18.4674 11.815 18.3884 12.0058 18.3884 12.2047V12.7912C17.7792 12.2691 17.0022 11.9842 16.1999 11.9887C14.2777 11.9887 12.2894 13.6462 12.2894 16.4205C12.2894 18.9517 14.0077 21.0112 16.1197 21.0112C16.5877 21.0059 17.0496 20.9032 17.4757 20.7095C17.9018 20.5158 18.2829 20.2354 18.5947 19.8862C18.769 20.3213 19.0672 20.6956 19.4522 20.9629C19.8372 21.2302 20.2921 21.3787 20.7607 21.39ZM16.1189 19.515C14.8342 19.515 13.7887 18.1282 13.7887 16.4242C13.7887 14.589 15.0149 13.4925 16.1992 13.4925C17.4674 13.4925 18.3532 14.6722 18.3667 16.3635V16.4385C18.3502 18.135 17.3497 19.5112 16.1189 19.5112V19.515Z" fill="white"/>
<path d="M45 23.25H15C14.4033 23.25 13.831 23.4871 13.409 23.909C12.9871 24.331 12.75 24.9033 12.75 25.5V45C12.75 45.5967 12.9871 46.169 13.409 46.591C13.831 47.0129 14.4033 47.25 15 47.25H45C45.5967 47.25 46.169 47.0129 46.591 46.591C47.0129 46.169 47.25 45.5967 47.25 45V25.5C47.25 24.9033 47.0129 24.331 46.591 23.909C46.169 23.4871 45.5967 23.25 45 23.25ZM43.9605 42.9082C44.0407 42.9678 44.1081 43.0428 44.1589 43.1289C44.2096 43.2149 44.2427 43.3102 44.2562 43.4091C44.2696 43.5081 44.2632 43.6087 44.2372 43.7052C44.2112 43.8016 44.1662 43.8919 44.1049 43.9707C44.0436 44.0496 43.9671 44.1153 43.88 44.1642C43.7929 44.2131 43.6969 44.2441 43.5977 44.2553C43.4984 44.2666 43.3979 44.2579 43.3021 44.2299C43.2062 44.2018 43.117 44.1548 43.0395 44.0918L32.8927 36.2002L31.3815 37.3755C30.9865 37.6827 30.5004 37.8496 30 37.8496C29.4996 37.8496 29.0135 37.6827 28.6185 37.3755L27.1073 36.2002L16.9605 44.0918C16.883 44.1548 16.7938 44.2018 16.6979 44.2299C16.6021 44.2579 16.5016 44.2666 16.4023 44.2553C16.3031 44.2441 16.2071 44.2131 16.12 44.1642C16.0329 44.1153 15.9564 44.0496 15.8951 43.9707C15.8338 43.8919 15.7888 43.8016 15.7628 43.7052C15.7368 43.6087 15.7304 43.5081 15.7438 43.4091C15.7573 43.3102 15.7904 43.2149 15.8411 43.1289C15.8919 43.0428 15.9593 42.9678 16.0395 42.9082L25.8862 35.25L16.0395 27.5918C15.9593 27.5322 15.8919 27.4572 15.8411 27.3711C15.7904 27.2851 15.7573 27.1898 15.7438 27.0909C15.7304 26.9919 15.7368 26.8913 15.7628 26.7948C15.7888 26.6984 15.8338 26.6081 15.8951 26.5293C15.9564 26.4504 16.0329 26.3847 16.12 26.3358C16.2071 26.2869 16.3031 26.2559 16.4023 26.2447C16.5016 26.2334 16.6021 26.2421 16.6979 26.2702C16.7938 26.2982 16.883 26.3452 16.9605 26.4082L29.5395 36.192C29.6712 36.2944 29.8332 36.35 30 36.35C30.1668 36.35 30.3288 36.2944 30.4605 36.192L43.0395 26.4082C43.117 26.3452 43.2062 26.2982 43.3021 26.2702C43.3979 26.2421 43.4984 26.2334 43.5977 26.2447C43.6969 26.2559 43.7929 26.2869 43.88 26.3358C43.9671 26.3847 44.0436 26.4504 44.1049 26.5293C44.1662 26.6081 44.2112 26.6984 44.2372 26.7948C44.2632 26.8913 44.2696 26.9919 44.2562 27.0909C44.2427 27.1898 44.2096 27.2851 44.1589 27.3711C44.1081 27.4572 44.0407 27.5322 43.9605 27.5918L34.1138 35.25L43.9605 42.9082Z" fill="#FBC54C"/>
</svg>
