<svg width="80" height="80" viewBox="0 0 80 80" fill="none" xmlns="http://www.w3.org/2000/svg">
<g clip-path="url(#clip0)">
<path d="M80 39.4679C78.6441 37.9229 62.9807 22.2387 59.5675 20.6469C56.8556 19.3828 54.0035 22.426 52.9281 23.7837C52.5073 24.2987 50.7773 27.2483 49.6084 26.1715C47.7382 24.3924 53.4424 19.5233 55.5465 18.8678C57.5102 18.2123 57.5102 17.1355 56.8089 16.5269C56.014 15.9182 40.865 0 40.1636 0C40.1169 0 40.0701 0.0468184 39.9766 0.0936367C39.9299 0.0468184 39.8831 0 39.8363 0C39.135 0 23.986 15.9182 23.2379 16.5269C22.4898 17.1355 23.0508 18.306 24.2665 18.5401C25.903 18.8678 32.6359 24.3924 30.4383 26.1715C29.3162 27.061 28.2875 25.3756 27.633 24.2987C26.9316 23.2219 24.0327 19.2892 20.4793 20.6469C16.9258 22.0514 1.35593 37.9229 0 39.4679V39.5147V39.5615C1.35593 41.1065 16.879 57.0716 20.4325 58.3825C23.2846 59.4125 26.6978 56.2757 27.4927 55.152C28.5681 53.6538 29.0357 51.9216 30.3916 52.8579C33.1502 54.7307 25.3887 60.3489 23.7522 60.4425C22.1157 60.5361 22.4898 61.8939 23.2379 62.5025C23.986 63.1111 39.135 79.0294 39.8363 79.0294C39.8831 79.0294 39.9299 78.9826 40.0234 78.9358C40.1169 78.9826 40.1636 79.0294 40.2104 79.0294C40.9117 79.0294 56.0608 63.1111 56.8089 62.5025C57.557 61.8939 57.931 60.8171 56.2946 60.4425C54.5646 60.0211 47.2238 54.8243 49.6552 52.8579C51.1514 51.5938 52.4605 54.6838 52.8814 55.1988C53.91 56.4161 56.9959 59.5061 59.6143 58.3825C63.0742 56.8843 78.6908 41.1065 80.0468 39.5615V39.5147C80 39.5147 80 39.5147 80 39.4679ZM42.5015 15.3564C42.595 10.815 42.5015 7.3973 42.5015 7.3973C43.3431 5.80548 46.1952 11.096 46.5693 12.5473C46.9433 13.9987 46.0082 14.9351 47.6914 15.2628C48.8603 15.4501 50.263 16.9014 49.889 18.4933C49.5149 20.0383 46.6628 17.791 45.4471 21.2087C44.1847 24.6265 46.616 26.9674 49.0941 27.8569C51.5722 28.7465 54.4243 28.2315 56.2478 26.9674C58.0713 25.7033 57.9778 22.7537 59.3337 22.8942C61.9521 23.0815 59.848 27.1546 57.6973 29.0274C55.7335 30.7597 53.0216 30.0574 52.5073 30.9469C51.993 31.8365 53.1619 34.1306 55.827 34.3647C58.2583 34.5988 60.3624 33.6156 60.4559 31.5088C60.5026 30.4319 60.9702 29.6828 62.2794 29.9169C63.495 30.1042 64.6639 31.9301 64.9912 33.1006C67.7499 32.5856 70.1344 34.0838 71.6774 35.7692C73.2203 37.4547 71.1163 37.0801 71.1163 37.0801H56.6686C50.9643 37.0801 49.9357 31.5088 49.4214 30.9469C48.9071 30.3851 46.803 30.151 44.4652 27.7165C41.8001 24.9542 42.4079 19.851 42.5015 15.3564ZM8.36937 35.6756C9.91233 33.9901 12.2969 32.4919 15.0555 33.0069C15.3828 31.8833 16.5517 30.0106 17.7674 29.8233C19.0766 29.636 19.5441 30.3383 19.5909 31.4151C19.6844 33.5219 21.7884 34.5051 24.2198 34.271C26.8849 33.9901 28.0538 31.7428 27.5395 30.8533C27.0251 29.9637 24.3133 30.666 22.3495 28.9337C20.1987 27.061 18.0947 23.0346 20.713 22.8005C22.069 22.7069 21.9755 25.6565 23.7989 26.8737C25.6224 28.1378 28.4278 28.6528 30.9527 27.7633C33.4307 26.8737 35.8621 24.5328 34.5996 21.1151C33.3372 17.6973 30.4851 19.9914 30.1578 18.3996C29.7838 16.8546 31.1864 15.4032 32.3553 15.1691C33.9918 14.8414 33.1034 13.9051 33.4775 12.4537C33.8515 11.0023 36.7037 5.71184 37.5453 7.30366C37.5453 7.30366 37.4518 10.7214 37.5453 15.2628C37.6388 19.8042 38.2934 24.8605 35.675 27.5292C33.2905 29.9637 31.2332 30.1978 30.6721 30.7597C30.111 31.4151 29.0824 36.9865 23.3781 36.9865H8.97721C8.97721 36.9865 6.82642 37.3142 8.36937 35.6756ZM37.4985 63.7198C37.405 68.2612 37.4985 71.6789 37.4985 71.6789C36.6569 73.2707 33.8048 67.9803 33.4307 66.5289C33.0567 65.0775 33.9918 64.1412 32.3086 63.8134C31.1397 63.6261 29.737 62.1748 30.111 60.583C30.4851 59.0379 33.3372 61.2852 34.5529 57.8675C35.8153 54.4497 33.384 52.1088 30.9059 51.2193C28.4278 50.3297 25.5757 50.8447 23.7522 52.1088C21.9287 53.3729 22.0222 56.3225 20.6663 56.182C18.0479 55.9948 20.152 51.9216 22.3027 50.0488C24.2665 48.3165 26.9784 49.0188 27.4927 48.1293C28.007 47.2397 26.8381 44.9456 24.173 44.7115C21.7417 44.4774 19.6376 45.4606 19.5441 47.5675C19.4974 48.6443 19.0298 49.3934 17.7206 49.1593C16.505 48.972 15.3361 47.1461 15.0088 45.9756C12.2501 46.4906 9.86557 44.9924 8.32262 43.307C6.77966 41.6215 8.88369 41.9961 8.88369 41.9961H23.3781C29.0824 41.9961 30.111 47.5675 30.6254 48.1293C31.1397 48.6911 33.2437 48.9252 35.6283 51.3597C38.2466 54.122 37.592 59.2252 37.4985 63.7198ZM40.0234 47.6143C35.5815 47.6143 31.9813 44.0093 31.9813 39.5615C31.9813 35.1138 35.5815 31.5088 40.0234 31.5088C44.4652 31.5088 48.0655 35.1138 48.0655 39.5615C48.0655 44.0093 44.4652 47.6143 40.0234 47.6143ZM71.6306 43.4006C70.0877 45.0861 67.7031 46.5843 64.9445 46.0693C64.6172 47.1929 63.4483 49.0656 62.2326 49.2529C60.9234 49.4402 60.4559 48.7379 60.4091 47.6611C60.3156 45.5543 58.2116 44.5711 55.7802 44.8052C53.1151 45.0861 51.9462 47.3334 52.4605 48.2229C52.9749 49.1125 55.6867 48.4102 57.6505 50.1425C59.8013 52.0152 61.9053 56.0416 59.287 56.2757C57.931 56.3693 58.0245 53.4197 56.201 52.2025C54.3776 50.9384 51.5722 50.4234 49.0473 51.3129C46.5693 52.2025 44.1379 54.5434 45.4003 57.9611C46.6628 61.3789 49.5149 59.0848 49.8422 60.6766C50.2162 62.2216 48.8136 63.673 47.6447 63.9071C46.0082 64.2348 46.8966 65.1712 46.5225 66.6225C46.1484 68.0739 43.2963 73.3644 42.4547 71.7725C42.4547 71.7725 42.5482 68.3548 42.4547 63.8134C42.3612 59.272 41.7066 54.2157 44.325 51.547C46.7095 49.1125 48.7668 48.8784 49.2811 48.3165C49.7954 47.7547 50.8241 42.1833 56.5283 42.1833H71.0695C71.0695 42.1365 73.1736 41.762 71.6306 43.4006Z" fill="#74B5E8"/>
</g>
<defs>
<clipPath id="clip0">
<rect width="80" height="79.0762" fill="white"/>
</clipPath>
</defs>
</svg>
