<svg width="24" height="24" viewBox="0 0 24 24" fill="none" xmlns="http://www.w3.org/2000/svg">
<path d="M15.6781 11.3703C15.6719 10.3047 16.1547 9.50156 17.1297 8.90938C16.5844 8.12813 15.7594 7.69844 14.6719 7.61563C13.6422 7.53438 12.5156 8.21563 12.1031 8.21563C11.6672 8.21563 10.6703 7.64375 9.88594 7.64375C8.26719 7.66875 6.54688 8.93438 6.54688 11.5094C6.54688 12.2703 6.68594 13.0563 6.96406 13.8656C7.33594 14.9313 8.67656 17.5422 10.075 17.5C10.8062 17.4828 11.3234 16.9813 12.275 16.9813C13.1984 16.9813 13.6766 17.5 14.4922 17.5C15.9031 17.4797 17.1156 15.1063 17.4688 14.0375C15.5766 13.1453 15.6781 11.425 15.6781 11.3703ZM14.0359 6.60469C14.8281 5.66406 14.7563 4.80781 14.7328 4.5C14.0328 4.54063 13.2234 4.97656 12.7625 5.5125C12.2547 6.0875 11.9562 6.79844 12.0203 7.6C12.7766 7.65781 13.4672 7.26875 14.0359 6.60469Z" fill="black"/>
<circle cx="12" cy="12" r="11.5" stroke="#D6D6D6"/>
</svg>
