<svg width="24" height="24" viewBox="0 0 24 24" fill="none" xmlns="http://www.w3.org/2000/svg">
<path d="M18.537 10.6944H18V10.6667H12V13.3334H15.7677C15.218 14.8857 13.741 16 12 16C9.79099 16 7.99999 14.209 7.99999 12C7.99999 9.79104 9.79099 8.00004 12 8.00004C13.0197 8.00004 13.9473 8.38471 14.6537 9.01304L16.5393 7.12737C15.3487 6.01771 13.756 5.33337 12 5.33337C8.31833 5.33337 5.33333 8.31837 5.33333 12C5.33333 15.6817 8.31833 18.6667 12 18.6667C15.6817 18.6667 18.6667 15.6817 18.6667 12C18.6667 11.553 18.6207 11.1167 18.537 10.6944Z" fill="#FFC107"/>
<path d="M6.10201 8.89704L8.29234 10.5034C8.885 9.03604 10.3203 8.00004 12 8.00004C13.0197 8.00004 13.9473 8.38471 14.6537 9.01304L16.5393 7.12737C15.3487 6.01771 13.756 5.33337 12 5.33337C9.43934 5.33337 7.21867 6.77904 6.10201 8.89704Z" fill="#FF3D00"/>
<path d="M12 18.6667C13.722 18.6667 15.2867 18.0077 16.4697 16.936L14.4063 15.19C13.7145 15.7161 12.8692 16.0007 12 16C10.266 16 8.79367 14.8943 8.239 13.3513L6.065 15.0263C7.16834 17.1853 9.409 18.6667 12 18.6667Z" fill="#4CAF50"/>
<path d="M18.537 10.6943H18V10.6666H12V13.3333H15.7677C15.5047 14.0721 15.0311 14.7177 14.4053 15.1903L14.4063 15.1896L16.4697 16.9356C16.3237 17.0683 18.6667 15.3333 18.6667 12C18.6667 11.553 18.6207 11.1166 18.537 10.6943Z" fill="#1976D2"/>
<circle cx="12" cy="12" r="11.5" stroke="#D6D6D6"/>
</svg>
